<?xml version="1.0" encoding="utf-8"?>
<!-- Generator: Adobe Illustrator 23.1.0, SVG Export Plug-In . SVG Version: 6.00 Build 0)  -->
<svg version="1.1" id="Слой_1" xmlns="http://www.w3.org/2000/svg" xmlns:xlink="http://www.w3.org/1999/xlink" x="0px" y="0px"
	 viewBox="0 0 64 64" style="enable-background:new 0 0 64 64;" xml:space="preserve">
<style type="text/css">
	.st0{fill:#FFFFFF;}
	.st1{fill:#494947;}
</style>
<circle class="st0" cx="32" cy="32" r="29.463"/>
<path class="st1" d="M32,0C14.3,0,0,14.3,0,32s14.3,32,32,32s32-14.3,32-32S49.7,0,32,0z"/>
<polygon class="st0" points="15.805,12.9 16.592,20.148 32.157,20.148 32.944,20.148 32.157,20.51 17.22,27.577 17.692,34.644 
	32.157,34.826 39.861,34.826 39.389,44.248 32.157,46.603 32.157,46.603 32.157,46.603 25.081,44.61 24.611,38.631 24.611,38.631 
	18.164,38.631 18.164,38.631 18.949,50.047 32.157,54.395 32.157,54.395 32.157,54.395 45.208,50.047 46.937,27.577 32.157,27.577 
	32.157,27.577 32.157,27.577 47.565,20.148 48.195,12.9 32.157,12.9 "/>
<path class="st1" d="M33.032,8.493"/>
<path class="st0" d="M31.809,13.655"/>
</svg>
