<?xml version="1.0" encoding="utf-8"?>
<!-- Generator: Adobe Illustrator 23.1.0, SVG Export Plug-In . SVG Version: 6.00 Build 0)  -->
<svg version="1.1" id="Слой_1" xmlns="http://www.w3.org/2000/svg" xmlns:xlink="http://www.w3.org/1999/xlink" x="0px" y="0px"
	 viewBox="0 0 64 64" style="enable-background:new 0 0 64 64;" xml:space="preserve">
<style type="text/css">
	.st0{fill:#FFFFFF;}
	.st1{fill:#494947;}
</style>
<circle class="st0" cx="31.352" cy="32" r="28.105"/>
<path class="st1" d="M32,0C14.3,0,0,14.3,0,32s14.3,32,32,32s32-14.3,32-32S49.7,0,32,0z"/>
<path class="st1" d="M33.032,8.493"/>
<path class="st0" d="M31.809,13.655"/>
<path class="st0" d="M23.319,25.369l9.236-5.333c0.231-0.134,0.516-0.134,0.747,0l9.237,5.333c0.231,0.134,0.374,0.38,0.374,0.647
	v10.667c0,0.266-0.143,0.514-0.374,0.647l-9.238,5.325c-0.231,0.134-0.516,0.134-0.747,0l-9.235-5.319
	c-0.231-0.134-0.374-0.38-0.374-0.647V26.018C22.945,25.752,23.088,25.504,23.319,25.369"/>
<path class="st0" d="M54.72,31.25L44.191,12.934c-0.382-0.663-1.087-1.144-1.853-1.144H21.281c-0.765,0-1.472,0.489-1.854,1.15
	L8.898,31.218c-0.383,0.669-0.383,1.491,0,2.16l10.529,18.16c0.383,0.663,1.089,1,1.854,1h21.057c0.765,0,1.472-0.328,1.854-0.991
	L54.72,33.352C55.102,32.704,55.102,31.899,54.72,31.25 M47.804,39.457c0,0.281-0.17,0.543-0.415,0.684l-14.058,8.11
	c-0.246,0.142-0.549,0.142-0.796,0l-14.067-8.11c-0.245-0.141-0.416-0.403-0.416-0.684V23.236c0.007-0.285,0.164-0.545,0.413-0.684
	l14.058-8.11c0.246-0.141,0.549-0.141,0.795,0l14.069,8.109c0.245,0.141,0.418,0.403,0.418,0.684L47.804,39.457z"/>
</svg>
