<?xml version="1.0" encoding="utf-8"?>
<!-- Generator: Adobe Illustrator 23.1.0, SVG Export Plug-In . SVG Version: 6.00 Build 0)  -->
<svg version="1.1" id="Слой_1" xmlns="http://www.w3.org/2000/svg" xmlns:xlink="http://www.w3.org/1999/xlink" x="0px" y="0px"
	 viewBox="0 0 64 64" style="enable-background:new 0 0 64 64;" xml:space="preserve">
<style type="text/css">
	.st0{fill:#FFFFFF;}
	.st1{fill:#494947;}
</style>
<circle class="st0" cx="32" cy="32" r="29.463"/>
<path class="st1" d="M32,0C14.3,0,0,14.3,0,32s14.3,32,32,32s32-14.3,32-32S49.7,0,32,0z"/>
<path class="st1" d="M33.032,8.493"/>
<path class="st0" d="M31.809,13.655"/>
<g id="Git">
	<path class="st0" d="M52.464,30.121L33.638,11.295c-1.065-1.011-2.736-1.011-3.801,0l-3.586,3.586
		c-0.352,0.349-0.354,0.916-0.005,1.268c0.002,0.002,0.003,0.003,0.005,0.005l3.227,3.335c0.254,0.254,0.635,0.331,0.968,0.197
		c1.848-0.713,3.923,0.207,4.637,2.054c0.164,0.425,0.246,0.878,0.24,1.334c-0.005,0.455-0.096,0.906-0.269,1.327
		c-0.134,0.333-0.056,0.714,0.197,0.968l3.156,3.084c0.254,0.254,0.635,0.331,0.968,0.197c1.84-0.733,3.925,0.165,4.658,2.005
		c0.733,1.84-0.165,3.925-2.005,4.658c-1.84,0.733-3.925-0.165-4.658-2.005c-0.161-0.404-0.247-0.834-0.254-1.269
		c0.006-0.436,0.091-0.867,0.251-1.273c0.126-0.328,0.049-0.7-0.197-0.95l-3.012-3.03c-0.354-0.347-0.921-0.341-1.268,0.013
		c-0.161,0.164-0.253,0.385-0.256,0.615v9.467c-0.001,0.358,0.21,0.682,0.538,0.825c1.815,0.792,2.644,2.906,1.852,4.721
		c-0.792,1.815-2.906,2.644-4.721,1.852c-1.815-0.792-2.644-2.906-1.852-4.721c0.362-0.829,1.023-1.49,1.852-1.852
		c0.328-0.143,0.539-0.467,0.538-0.825v-9.718c0.001-0.358-0.21-0.682-0.538-0.825c-1.762-0.772-2.601-2.798-1.901-4.59
		c0.113-0.338,0.014-0.712-0.251-0.95l-3.245-3.317c-0.349-0.352-0.916-0.354-1.268-0.005c-0.002,0.002-0.003,0.003-0.005,0.005
		L11.083,30.032c-1.049,1.05-1.049,2.751,0,3.801l18.826,18.844c1.05,1.049,2.751,1.049,3.801,0l18.826-18.844
		c1.049-1.05,1.049-2.751,0-3.801L52.464,30.121z"/>
</g>
</svg>
