<?xml version="1.0" encoding="utf-8"?>
<!-- Generator: Adobe Illustrator 23.1.0, SVG Export Plug-In . SVG Version: 6.00 Build 0)  -->
<svg version="1.1" id="Слой_1" xmlns="http://www.w3.org/2000/svg" xmlns:xlink="http://www.w3.org/1999/xlink" x="0px" y="0px"
	 viewBox="0 0 512 512" style="enable-background:new 0 0 512 512;" xml:space="preserve">
<style type="text/css">
	.st0{fill:#333330;}
	.st1{fill:#FFFDFD;}
</style>
<circle class="st0" cx="256" cy="256" r="256"/>
<g>
	<g>
		<path class="st1" d="M378.413,169.316c-0.005-0.097-0.016-0.194-0.032-0.29c-0.375-0.536-0.837-0.998-1.224-1.523
			c-2.804-3.82-5.773-7.496-8.906-11.03c-0.858-0.966-1.717-1.921-2.597-2.865c-3.226-3.455-6.61-6.749-10.151-9.882
			c-0.655-0.58-1.266-1.18-1.921-1.749c-8.727-7.476-18.282-13.927-28.479-19.227c-0.408-0.214-0.837-0.397-1.256-0.612
			c-4.541-2.307-9.197-4.381-13.95-6.213c-1.073-0.386-2.05-0.751-3.069-1.073c-4.228-1.523-8.52-2.857-12.876-4.002
			c-1.288-0.343-2.575-0.697-3.884-0.998c-4.292-0.998-8.584-1.76-12.973-2.382c-1.33-0.193-2.639-0.451-3.981-0.612
			c-11.304-1.374-22.733-1.374-34.037,0c-1.341,0.161-2.65,0.419-3.981,0.612c-4.389,0.622-8.724,1.384-12.973,2.382
			c-1.309,0.301-2.597,0.654-3.884,0.998c-4.385,1.144-8.677,2.478-12.876,4.002c-1.073,0.365-2.05,0.73-3.069,1.073
			c-4.753,1.831-9.409,3.905-13.95,6.213c-0.419,0.214-0.848,0.397-1.256,0.612c-10.23,5.294-19.818,11.745-28.575,19.227
			c-0.655,0.568-1.266,1.169-1.921,1.749c-3.577,3.147-6.961,6.442-10.151,9.882c-0.88,0.944-1.738,1.899-2.597,2.865
			c-3.141,3.526-6.109,7.203-8.906,11.03c-0.386,0.526-0.848,0.987-1.224,1.523c-0.049,0.094-0.092,0.19-0.129,0.29
			c-37.011,51.865-37.011,121.504,0,173.369c0.036,0.099,0.079,0.196,0.129,0.29c0.375,0.536,0.837,0.998,1.224,1.523
			c2.797,3.82,5.766,7.496,8.906,11.03c0.858,0.966,1.717,1.921,2.597,2.865c3.234,3.455,6.617,6.749,10.151,9.882
			c0.655,0.58,1.266,1.18,1.921,1.749c8.727,7.476,18.282,13.927,28.479,19.227c0.408,0.214,0.837,0.397,1.256,0.612
			c4.541,2.307,9.197,4.381,13.95,6.213c1.073,0.386,2.05,0.751,3.069,1.073c4.228,1.523,8.52,2.857,12.876,4.002
			c1.288,0.343,2.575,0.697,3.884,0.998c4.292,0.998,8.584,1.76,12.973,2.382c1.33,0.193,2.639,0.451,3.981,0.612
			c11.304,1.374,22.733,1.374,34.037,0c1.341-0.161,2.65-0.419,3.981-0.612c4.389-0.622,8.724-1.384,12.973-2.382
			c1.309-0.301,2.597-0.654,3.884-0.998c4.392-1.144,8.685-2.478,12.876-4.002c1.073-0.365,2.05-0.73,3.069-1.073
			c4.753-1.831,9.409-3.905,13.95-6.213c0.419-0.214,0.848-0.397,1.256-0.612c10.196-5.3,19.752-11.751,28.479-19.227
			c0.655-0.569,1.266-1.169,1.921-1.749c3.577-3.14,6.961-6.434,10.151-9.882c0.88-0.944,1.738-1.899,2.597-2.865
			c3.141-3.534,6.109-7.21,8.906-11.03c0.386-0.526,0.848-0.987,1.224-1.523c0.049-0.094,0.092-0.19,0.129-0.29
			C415.425,290.82,415.425,221.181,378.413,169.316z M366.17,189.617c10.262,16.9,16.459,35.951,18.102,55.655h-64.275
			c-0.787-12.785-2.799-25.464-6.009-37.865C332.144,204.007,349.718,198.016,366.17,189.617z M283.353,130.207
			c0.601,0.14,1.18,0.333,1.781,0.472c3.842,0.902,7.651,1.931,11.374,3.219c0.569,0.193,1.127,0.419,1.685,0.622
			c3.691,1.288,7.329,2.715,10.892,4.292c0.622,0.29,1.234,0.612,1.857,0.902c3.412,1.624,6.746,3.38,10.001,5.268l2.146,1.298
			c3.09,1.889,6.095,3.909,9.014,6.062c0.751,0.547,1.502,1.073,2.243,1.674c2.861,2.146,5.601,4.445,8.219,6.899
			c0.687,0.622,1.395,1.234,2.071,1.878c2.747,2.607,5.365,5.365,7.898,8.219c0.322,0.375,0.665,0.719,0.987,1.073
			c-14.529,6.924-29.922,11.868-45.765,14.699c-7.34-20.176-17.036-39.415-28.886-57.317
			C280.358,129.735,281.883,129.885,283.353,130.207z M213.519,245.271c0.846-11.609,2.823-23.109,5.902-34.334
			c12.158,1.444,24.391,2.16,36.634,2.146c12.255-0.004,24.499-0.738,36.666-2.2c3.073,11.244,5.039,22.762,5.869,34.389H213.519z
			 M298.59,266.73c-0.846,11.609-2.823,23.109-5.902,34.334c-12.158-1.444-24.391-2.16-36.634-2.146
			c-12.254-0.014-24.497,0.702-36.666,2.146c-3.07-11.226-5.036-22.726-5.87-34.334H298.59z M256.054,134.242
			c12.211,17.306,22.255,36.044,29.906,55.794c-9.933,1.055-19.916,1.585-29.906,1.588c-9.979-0.012-19.95-0.545-29.874-1.599
			C233.841,170.288,243.872,151.556,256.054,134.242z M159.588,171.001c2.522-2.854,5.151-5.612,7.898-8.219
			c0.676-0.644,1.384-1.255,2.071-1.878c2.647-2.41,5.387-4.71,8.219-6.899c0.741-0.569,1.491-1.073,2.243-1.674
			c2.919-2.146,5.923-4.167,9.014-6.062l2.146-1.298c3.255-1.902,6.589-3.659,10.001-5.268c0.622-0.29,1.234-0.612,1.857-0.902
			c3.562-1.609,7.2-3.037,10.892-4.292c0.558-0.204,1.073-0.429,1.684-0.622c3.723-1.245,7.512-2.275,11.374-3.219
			c0.601-0.14,1.18-0.333,1.792-0.461c1.47-0.322,2.994-0.472,4.485-0.741c-11.855,17.906-21.554,37.148-28.897,57.328
			c-15.844-2.832-31.236-7.776-45.765-14.699C158.923,171.719,159.266,171.376,159.588,171.001z M145.939,189.617
			c16.448,8.398,34.018,14.389,52.171,17.79c-3.206,12.401-5.215,25.08-5.998,37.865h-64.275
			C129.48,225.568,135.677,206.517,145.939,189.617z M145.939,322.385c-10.262-16.9-16.459-35.951-18.102-55.655h64.275
			c0.787,12.785,2.799,25.464,6.009,37.865C179.965,307.994,162.391,313.986,145.939,322.385z M228.756,381.795
			c-0.601-0.14-1.18-0.333-1.781-0.472c-3.842-0.902-7.651-1.931-11.374-3.219c-0.569-0.193-1.127-0.419-1.685-0.622
			c-3.691-1.288-7.329-2.715-10.892-4.292c-0.622-0.29-1.234-0.612-1.857-0.902c-3.412-1.624-6.746-3.38-10.001-5.268l-2.146-1.298
			c-3.09-1.889-6.095-3.909-9.014-6.062c-0.751-0.547-1.502-1.073-2.243-1.674c-2.861-2.146-5.601-4.445-8.219-6.899
			c-0.687-0.622-1.395-1.234-2.071-1.878c-2.747-2.607-5.365-5.365-7.898-8.219c-0.322-0.375-0.665-0.719-0.987-1.073
			c14.529-6.924,29.922-11.868,45.765-14.699c7.34,20.176,17.036,39.415,28.886,57.317
			C231.75,382.267,230.226,382.117,228.756,381.795z M256.054,377.76c-12.211-17.306-22.255-36.044-29.906-55.794
			c19.872-2.139,39.917-2.139,59.79,0l-0.011,0.011C278.268,341.713,268.236,360.445,256.054,377.76z M352.521,341
			c-2.522,2.854-5.151,5.612-7.898,8.219c-0.676,0.644-1.384,1.255-2.071,1.878c-2.647,2.418-5.387,4.718-8.219,6.899
			c-0.741,0.568-1.491,1.127-2.243,1.674c-2.919,2.146-5.923,4.167-9.014,6.062l-2.146,1.298c-3.248,1.896-6.582,3.651-10.001,5.268
			c-0.622,0.29-1.234,0.612-1.857,0.902c-3.562,1.609-7.2,3.037-10.892,4.292c-0.558,0.204-1.073,0.429-1.684,0.622
			c-3.723,1.245-7.511,2.275-11.374,3.219c-0.601,0.14-1.18,0.333-1.792,0.461c-1.47,0.322-2.994,0.472-4.485,0.741
			c11.85-17.902,21.547-37.142,28.886-57.317c15.844,2.832,31.236,7.776,45.765,14.699C353.186,340.282,352.843,340.625,352.521,341
			z M366.17,322.385c-16.448-8.398-34.018-14.389-52.171-17.79c3.206-12.401,5.215-25.08,5.998-37.865h64.275
			C382.629,286.433,376.432,305.485,366.17,322.385z"/>
	</g>
</g>
</svg>
