<?xml version="1.0" encoding="utf-8"?>
<!-- Generator: Adobe Illustrator 23.1.0, SVG Export Plug-In . SVG Version: 6.00 Build 0)  -->
<svg version="1.1" id="Слой_1" xmlns="http://www.w3.org/2000/svg" xmlns:xlink="http://www.w3.org/1999/xlink" x="0px" y="0px"
	 viewBox="0 0 64 64" style="enable-background:new 0 0 64 64;" xml:space="preserve">
<style type="text/css">
	.st0{fill:#494947;}
	.st1{fill:#FFFFFF;}
	.st2{fill:#D5D8BF;}
</style>
<path class="st0" d="M32,0C14.3,0,0,14.3,0,32s14.3,32,32,32s32-14.3,32-32S49.7,0,32,0z"/>
<path class="st0" d="M33.032,8.493"/>
<path class="st1" d="M31.809,13.655"/>
<path class="st2" d="M37.935,40.649l-0.178,0.527l9.385,15.918l0.531,0.376l9.806-16.957l-9.806-17.025L37.935,40.649L37.935,40.649
	z M18.186,6.531L8.584,23.488l9.977,17.161l9.5-17.161l-0.026-0.693L18.624,6.876L18.186,6.531z"/>
<path class="st1" d="M18.186,6.531l9.875,16.957h19.613L37.731,6.531H18.186z M18.561,40.649l9.67,16.821h19.442l-9.738-16.821
	H18.561z"/>
</svg>
