<?xml version="1.0" encoding="utf-8"?>
<!-- Generator: Adobe Illustrator 23.1.0, SVG Export Plug-In . SVG Version: 6.00 Build 0)  -->
<svg version="1.1" id="Слой_1" xmlns="http://www.w3.org/2000/svg" xmlns:xlink="http://www.w3.org/1999/xlink" x="0px" y="0px"
	 viewBox="0 0 64 64" style="enable-background:new 0 0 64 64;" xml:space="preserve">
<style type="text/css">
	.st0{fill:#494947;}
	.st1{fill:#FFFFFF;}
</style>
<path class="st0" d="M32,0C14.3,0,0,14.3,0,32s14.3,32,32,32s32-14.3,32-32S49.7,0,32,0z"/>
<path class="st0" d="M33.032,8.493"/>
<path class="st1" d="M47.303,13.985l-0.312,4.244c0,0.923-0.312,1.292-1.091,1.292H25.18c-0.779,0-1.091,0.923-1.091,1.292
	l0.312,4.982c0,0.923,0.312,1.292,1.091,1.292h19.631c0.779,0,1.091,0.923,1.091,1.292l-1.402,19.007
	c0,0.369-0.312,0.923-0.779,1.292l-11.685,4.06c-0.312,0-0.312,0-0.779,0l-11.685-4.244c-0.312,0-0.779-0.923-0.779-1.292
	l-0.779-8.858c0-0.923,0.312-1.292,1.091-1.292h5.297v4.613c0,0.369,0.312,1.292,0.779,1.292l6.076,1.661c0.312,0,0.312,0,0.779,0
	l6.076-1.661c0.312,0,0.779-0.369,0.779-1.292l0.312-6.274c0-0.923-0.312-1.292-1.091-1.292H19.104
	c-0.779,0-1.091-0.369-1.091-1.292L16.923,14.17c0-0.923,0.312-1.292,1.091-1.292h27.732C46.992,12.324,47.303,13.063,47.303,13.985
	z"/>
</svg>
