<?xml version="1.0" encoding="utf-8"?>
<!-- Generator: Adobe Illustrator 23.1.0, SVG Export Plug-In . SVG Version: 6.00 Build 0)  -->
<svg version="1.1" id="Слой_1" xmlns="http://www.w3.org/2000/svg" xmlns:xlink="http://www.w3.org/1999/xlink" x="0px" y="0px"
	 viewBox="0 0 64 64" style="enable-background:new 0 0 64 64;" xml:space="preserve">
<style type="text/css">
	.st0{fill:#494947;}
	.st1{fill:#FFFFFF;}
	.st2{stroke:#FFFFFF;stroke-width:3;stroke-miterlimit:10;}
</style>
<path class="st0" d="M32,0C14.3,0,0,14.3,0,32s14.3,32,32,32s32-14.3,32-32S49.7,0,32,0z"/>
<path class="st0" d="M33.032,8.493"/>
<path class="st1" d="M31.809,13.655"/>
<g id="g10302" transform="matrix(0.92988585,0,0,0.92988585,-3996.6606,-1611.459)">
	<path id="path3265" class="st2" d="M4324.484,1778.038c0,0-1.913,1.112,1.361,1.489c3.967,0.453,5.995,0.388,10.366-0.44
		c0,0,1.149,0.721,2.754,1.345C4329.166,1784.632,4316.787,1780.189,4324.484,1778.038"/>
	<path id="path3267" class="st2" d="M4323.286,1772.557c0,0-2.146,1.588,1.131,1.927c4.238,0.437,7.584,0.473,13.375-0.642
		c0,0,0.801,0.812,2.061,1.256C4328.004,1778.563,4314.807,1775.371,4323.286,1772.557"/>
	<path id="path3269" class="st2" d="M4333.382,1763.26c2.415,2.78-0.635,5.282-0.635,5.282s6.131-3.165,3.316-7.129
		c-2.63-3.696-4.647-5.533,6.271-11.865C4342.334,1749.548,4325.196,1753.828,4333.382,1763.26"/>
	<path id="path3271" class="st2" d="M4346.343,1782.092c0,0,1.416,1.167-1.559,2.069c-5.657,1.714-23.543,2.231-28.513,0.068
		c-1.786-0.777,1.563-1.855,2.617-2.082c1.099-0.238,1.727-0.194,1.727-0.194c-1.987-1.399-12.84,2.748-5.513,3.935
		C4335.083,1789.129,4351.526,1784.43,4346.343,1782.092"/>
	<path id="path3273" class="st2" d="M4325.404,1766.878c0,0-9.099,2.161-3.222,2.946c2.481,0.332,7.428,0.257,12.035-0.129
		c3.765-0.318,7.546-0.993,7.546-0.993s-1.328,0.569-2.288,1.224c-9.239,2.43-27.088,1.299-21.95-1.186
		C4321.871,1766.64,4325.404,1766.878,4325.404,1766.878"/>
	<path id="path3275" class="st2" d="M4341.726,1776.001c9.392-4.881,5.049-9.571,2.019-8.939c-0.743,0.155-1.074,0.289-1.074,0.289
		s0.276-0.432,0.802-0.619c5.997-2.108,10.608,6.218-1.936,9.515C4341.537,1776.247,4341.682,1776.118,4341.726,1776.001"/>
	<path id="path3277" class="st2" d="M4336.063,1739.323c0,0,5.201,5.203-4.934,13.204c-8.127,6.418-1.854,10.078-0.003,14.259
		c-4.744-4.28-8.226-8.048-5.89-11.555C4328.665,1750.084,4338.162,1747.588,4336.063,1739.323"/>
	<path id="path3279" class="st2" d="M4326.327,1789.227c9.016,0.577,22.859-0.32,23.188-4.586c0,0-0.63,1.617-7.451,2.901
		c-7.695,1.448-17.185,1.279-22.814,0.351C4319.249,1787.893,4320.401,1788.847,4326.327,1789.227"/>
</g>
</svg>
