<?xml version="1.0" encoding="utf-8"?>
<!-- Generator: Adobe Illustrator 23.1.0, SVG Export Plug-In . SVG Version: 6.00 Build 0)  -->
<svg version="1.1" id="Слой_1" xmlns="http://www.w3.org/2000/svg" xmlns:xlink="http://www.w3.org/1999/xlink" x="0px" y="0px"
	 viewBox="0 0 64 64" style="enable-background:new 0 0 64 64;" xml:space="preserve">
<style type="text/css">
	.st0{fill:#FFFFFF;}
	.st1{fill:#494947;}
	.st2{fill:#FFFFFF;stroke:#FFFFFF;stroke-miterlimit:10;}
	.st3{stroke:#494947;stroke-width:2;stroke-miterlimit:10;}
	.st4{fill:#494947;stroke:#000000;stroke-width:2;stroke-miterlimit:10;}
</style>
<circle class="st0" cx="32" cy="32" r="29.463"/>
<path class="st1" d="M32,0C14.3,0,0,14.3,0,32s14.3,32,32,32s32-14.3,32-32S49.7,0,32,0z"/>
<path class="st1" d="M33.032,8.493"/>
<g id="Layer_1_1_">
	<g>
		<g>
			<path class="st2" d="M21.551,15.161h6.407V35.17c0,8.87-3.957,12.17-10.176,12.17c-1.508,0-3.58-0.206-4.711-0.825l0.754-5.776
				c0.942,0.413,2.073,0.619,3.392,0.619c2.827,0,4.523-1.444,4.523-6.188L21.551,15.161z"/>
			<path class="st2" d="M33.8,39.295c1.696,1.031,4.523,2.063,7.161,2.063c3.015,0,4.523-1.444,4.523-3.507
				s-1.319-3.094-4.899-4.332c-4.711-1.856-7.915-4.744-7.915-9.489c0-5.363,4.146-9.282,10.93-9.282
				c3.204,0,5.653,0.825,7.349,1.65l-1.508,5.776c-1.131-0.619-3.204-1.444-6.03-1.444s-4.146,1.444-4.146,3.094
				c0,2.063,1.508,2.888,5.276,4.538c5.088,2.063,7.538,4.951,7.538,9.489c0,5.363-3.58,9.695-11.683,9.695
				c-3.204,0-6.595-1.031-8.103-2.063L33.8,39.295z"/>
		</g>
	</g>
</g>
<path class="st3" d="M24.221,18.775"/>
<path class="st4" d="M92.337,16.926"/>
<path class="st1" d="M29.621,13.232"/>
<path class="st1" d="M81.916,21.947"/>
</svg>
