<?xml version="1.0" encoding="utf-8"?>
<!-- Generator: Adobe Illustrator 23.1.0, SVG Export Plug-In . SVG Version: 6.00 Build 0)  -->
<svg version="1.1" id="Слой_1" xmlns="http://www.w3.org/2000/svg" xmlns:xlink="http://www.w3.org/1999/xlink" x="0px" y="0px"
	 viewBox="0 0 64 64" style="enable-background:new 0 0 64 64;" xml:space="preserve">
<style type="text/css">
	.st0{fill:#494947;}
	.st1{fill:#FFFFFF;}
</style>
<path class="st0" d="M33.032,8.493"/>
<path class="st1" d="M31.809,13.655"/>
<g>
	<path class="st1" d="M33.864,29.565v-0.077c-0.016,0.026-0.033,0.052-0.05,0.077H33.864z"/>
	<path class="st1" d="M53.058,7.131h-42.12c-2.016,0-3.651,1.596-3.651,3.563v42.613c0,1.966,1.635,3.562,3.651,3.562h42.12
		c2.019,0,3.654-1.597,3.654-3.562V10.694C56.712,8.726,55.076,7.131,53.058,7.131z M22.269,48.768h-7.465V26.309h7.465V48.768z
		 M18.537,23.241h-0.05c-2.504,0-4.124-1.725-4.124-3.88c0-2.203,1.67-3.88,4.223-3.88c2.554,0,4.125,1.677,4.175,3.88
		C22.76,21.516,21.139,23.241,18.537,23.241z M49.188,48.768h-7.465V36.75c0-3.018-1.08-5.078-3.781-5.078
		c-2.062,0-3.29,1.389-3.831,2.731c-0.197,0.479-0.245,1.149-0.245,1.821v12.543h-7.465c0,0,0.098-20.354,0-22.459h7.465v3.179
		c0.992-1.53,2.766-3.709,6.729-3.709c4.911,0,8.594,3.211,8.594,10.11v12.88H49.188z"/>
</g>
</svg>
