<?xml version="1.0" encoding="utf-8"?>
<!-- Generator: Adobe Illustrator 23.1.0, SVG Export Plug-In . SVG Version: 6.00 Build 0)  -->
<svg version="1.1" id="Слой_1" xmlns="http://www.w3.org/2000/svg" xmlns:xlink="http://www.w3.org/1999/xlink" x="0px" y="0px"
	 viewBox="0 0 64 64" style="enable-background:new 0 0 64 64;" xml:space="preserve">
<style type="text/css">
	.st0{fill:#494947;}
	.st1{fill:#FFFFFF;}
</style>
<path class="st0" d="M33.032,8.493"/>
<path class="st1" d="M31.809,13.655"/>
<path d="M34.816,22.895L34.816,22.895L34.816,22.895L34.816,22.895"/>
<g>
	<path class="st1" d="M57.621,17.985c0-0.056,0.039-0.111,0.036-0.167L42.628,32.3l15.012,14.019c0.009-0.1-0.018-0.201-0.018-0.303
		L57.621,17.985L57.621,17.985z"/>
	<path class="st1" d="M40.333,34.528l-6.136,5.903c-0.31,0.299-0.711,0.448-1.113,0.448c-0.393,0-0.786-0.143-1.094-0.431
		l-6.119-5.702l-15.11,14.564c0.367,0.132,0.762,0.235,1.175,0.235h42.296c0.613,0,1.188-0.187,1.688-0.465L40.333,34.528z"/>
	<path class="st1" d="M33.068,37.065L56.005,14.97c-0.519-0.309-1.124-0.516-1.772-0.516H11.937c-0.844,0-1.617,0.328-2.219,0.827
		L33.068,37.065z"/>
	<path class="st1" d="M8.407,18.523v27.492c0,0.316,0.073,0.62,0.151,0.911l14.922-14.37L8.407,18.523z"/>
</g>
</svg>
