<?xml version="1.0" encoding="utf-8"?>
<!-- Generator: Adobe Illustrator 23.1.0, SVG Export Plug-In . SVG Version: 6.00 Build 0)  -->
<svg version="1.1" id="Слой_1" xmlns="http://www.w3.org/2000/svg" xmlns:xlink="http://www.w3.org/1999/xlink" x="0px" y="0px"
	 viewBox="0 0 64 64" style="enable-background:new 0 0 64 64;" xml:space="preserve">
<style type="text/css">
	.st0{fill:#494947;}
	.st1{fill:#FFFFFF;}
	.st2{fill:none;}
	.st3{fill:#FFFFFF;stroke:#FFFFFF;stroke-width:2;stroke-miterlimit:10;}
	.st4{opacity:0.35;fill:#FFFFFF;enable-background:new    ;}
</style>
<path class="st0" d="M32,0C14.3,0,0,14.3,0,32s14.3,32,32,32s32-14.3,32-32S49.7,0,32,0z"/>
<path class="st0" d="M33,8.5"/>
<path class="st1" d="M31.8,13.7"/>
<path d="M34.8,22.9L34.8,22.9L34.8,22.9L34.8,22.9"/>
<rect x="10.4" y="17.8" class="st2" width="43.4" height="28.5"/>
<path class="st2" d="M-1.263,10.528h66.526v38.943H-1.263V10.528z"/>
<g id="g7248" transform="matrix(0.09561334,-0.07017507,0.07017507,0.09561334,132.73733,36.368381)">
	<path id="path7258" class="st3" d="M-646.672-755.833c-5.802,3.453-15.472,13.123-26.937,27.144l10.568,19.961
		c7.39-10.637,14.988-20.168,22.586-28.319c0.553-0.622,0.898-0.967,0.898-0.967c-0.276,0.345-0.622,0.622-0.898,0.967
		c-2.487,2.694-9.946,11.397-21.205,28.733c10.844-0.553,27.49-2.763,41.097-5.111c4.075-22.655-3.937-33.015-3.937-33.015
		S-634.723-762.948-646.672-755.833z"/>
	<path id="path7260" class="st1" d="M-664.63-642.006c0.069,0,0.138,0,0.207-0.069l-1.52,0.138
		c-0.069,0.069-0.207,0.069-0.276,0.138C-665.667-641.868-665.114-641.937-664.63-642.006z"/>
	<path id="path7262" class="st1" d="M-675.405-606.297c-0.829,0.207-1.727,0.345-2.625,0.483
		C-677.132-605.952-676.234-606.09-675.405-606.297z"/>
	<path id="path7264" class="st0" d="M-748.758-526.107c0.138-0.276,0.207-0.622,0.345-0.898c2.348-6.147,4.628-12.087,6.907-17.958
		c2.556-6.493,5.111-12.847,7.598-18.994c2.625-6.423,5.249-12.709,7.805-18.718c2.694-6.354,5.318-12.433,7.943-18.304
		c2.141-4.766,4.213-9.394,6.285-13.883c0.691-1.519,1.381-2.97,2.072-4.42c1.381-2.901,2.694-5.733,4.006-8.496
		c1.243-2.556,2.417-5.042,3.592-7.529c0.414-0.829,0.829-1.658,1.174-2.417c0.069-0.138,0.138-0.276,0.207-0.414l-1.312,0.138
		l-1.036-2.003c-0.069,0.207-0.207,0.414-0.276,0.622c-1.865,3.661-3.73,7.39-5.526,11.189c-1.036,2.141-2.072,4.351-3.177,6.562
		c-2.901,6.078-5.733,12.156-8.496,18.373c-2.832,6.216-5.595,12.502-8.288,18.718c-2.694,6.147-5.249,12.294-7.805,18.442
		s-5.042,12.225-7.46,18.304c-2.556,6.354-5.042,12.64-7.391,18.856c-0.553,1.381-1.105,2.832-1.589,4.213
		c-1.934,5.042-3.799,9.946-5.595,14.85l1.658,3.246l1.451-0.138c0.069-0.138,0.138-0.276,0.138-0.414
		C-753.386-513.743-751.037-520.029-748.758-526.107z"/>
	<path id="path7266" class="st1" d="M-678.721-605.744L-678.721-605.744L-678.721-605.744L-678.721-605.744z"/>
	<path id="path7268" class="st1" d="M-682.243-588.27c-1.381,0.276-2.763,0.483-4.144,0.691l0,0c0.691-0.069,1.45-0.207,2.141-0.345
		C-683.556-587.993-682.865-588.131-682.243-588.27z"/>
	<path id="path7270" class="st4" d="M-682.243-588.27c-1.381,0.276-2.763,0.483-4.144,0.691l0,0c0.691-0.069,1.45-0.207,2.141-0.345
		C-683.556-587.993-682.865-588.131-682.243-588.27z"/>
	<path id="path7272" class="st1" d="M-678.652-605.744L-678.652-605.744C-678.721-605.744-678.721-605.744-678.652-605.744
		c0.207,0,0.414-0.069,0.622-0.069c0.898-0.138,1.796-0.276,2.625-0.483C-676.441-606.09-677.547-605.952-678.652-605.744
		L-678.652-605.744L-678.652-605.744z"/>
	<path id="path7274" class="st4" d="M-678.652-605.744L-678.652-605.744C-678.721-605.744-678.721-605.744-678.652-605.744
		c0.207,0,0.414-0.069,0.622-0.069c0.898-0.138,1.796-0.276,2.625-0.483C-676.441-606.09-677.547-605.952-678.652-605.744
		L-678.652-605.744L-678.652-605.744z"/>
	<path id="path7286" class="st3" d="M-694.261-657.201c3.246-6.009,6.493-11.88,9.739-17.613c3.384-5.94,6.838-11.673,10.361-17.268
		c0.207-0.345,0.414-0.691,0.622-0.967c3.454-5.456,6.907-10.706,10.43-15.748l-10.568-19.892c-0.76,0.967-1.589,1.934-2.417,2.97
		c-3.039,3.799-6.216,7.874-9.463,12.225c-3.661,4.904-7.391,10.084-11.258,15.541c-3.523,5.042-7.114,10.361-10.706,15.817
		c-3.039,4.697-6.078,9.463-9.117,14.367c-0.138,0.207-0.207,0.345-0.345,0.553l13.745,27.145
		C-700.202-645.805-697.232-651.538-694.261-657.201z"/>
	<path id="path7298" class="st1" d="M-756.908-504.073c-1.796,4.973-3.661,10.084-5.457,15.334c0,0.069-0.069,0.138-0.069,0.207
		c-0.276,0.76-0.553,1.451-0.76,2.21c-1.243,3.523-2.279,6.7-4.766,13.883c4.075,1.865,7.321,6.7,10.36,12.225
		c-0.345-5.733-2.694-11.12-7.183-15.264c19.961,0.898,37.229-4.144,46.07-18.787c0.76-1.312,1.52-2.694,2.21-4.144
		c-4.075,5.111-9.048,7.321-18.511,6.769h-0.069h0.069c13.883-6.216,20.859-12.225,27.006-22.102
		c1.45-2.348,2.901-4.904,4.351-7.736c-12.156,12.502-26.247,16.024-41.097,13.33l-11.12,1.243
		C-756.217-505.938-756.563-505.04-756.908-504.073z"/>
	<path id="path7310" class="st3" d="M-751.728-529.008c2.417-6.216,4.904-12.502,7.391-18.856c2.417-6.078,4.904-12.156,7.46-18.304
		c2.556-6.147,5.18-12.294,7.805-18.442c2.694-6.285,5.457-12.502,8.288-18.718c2.763-6.147,5.664-12.294,8.496-18.373
		c1.036-2.21,2.072-4.351,3.177-6.562c1.796-3.73,3.661-7.46,5.526-11.189c0.069-0.207,0.207-0.414,0.276-0.622l-13.607-27.075
		c-0.207,0.345-0.414,0.76-0.691,1.105c-3.177,5.249-6.424,10.568-9.532,16.024c-3.177,5.526-6.285,11.12-9.325,16.853
		c-2.556,4.835-5.042,9.67-7.529,14.574c-0.483,0.967-0.967,2.003-1.45,2.97c-2.97,6.147-5.733,12.156-8.15,17.889
		c-2.763,6.493-5.18,12.709-7.321,18.58c-1.381,3.868-2.694,7.598-3.868,11.189c-0.967,3.039-1.865,6.147-2.763,9.186
		c-2.072,7.183-3.799,14.367-5.249,21.55l13.814,27.283c1.796-4.904,3.73-9.808,5.595-14.85
		C-752.833-526.176-752.28-527.557-751.728-529.008z"/>
	<path id="path7322" class="st3" d="M-773.001-536.26c-1.727,8.703-2.97,17.406-3.592,26.108c0,0.276-0.069,0.622-0.069,0.898
		c-4.282-6.907-15.886-13.676-15.817-13.607c8.288,12.018,14.574,23.898,15.472,35.571c-4.42,0.898-10.499-0.414-17.475-2.97
		c7.321,6.7,12.778,8.565,14.919,9.048c-6.7,0.414-13.676,5.042-20.721,10.36c10.291-4.213,18.649-5.871,24.589-4.49
		c-9.463,26.73-18.925,56.292-28.388,87.65c2.901-0.829,4.628-2.832,5.595-5.457c1.658-5.664,12.916-42.962,30.46-91.932
		c0.483-1.381,1.036-2.763,1.52-4.213c0.138-0.414,0.276-0.76,0.414-1.174c1.865-5.111,3.799-10.36,5.802-15.748
		c0.484-1.243,0.898-2.417,1.381-3.661v-0.069l-13.814-27.283C-772.863-536.882-772.932-536.605-773.001-536.26z"/>
	<path id="path7334" class="st3" d="M-701.03-637.724c-0.414,0.829-0.76,1.589-1.174,2.417c-1.174,2.486-2.417,4.973-3.592,7.529
		c-1.312,2.763-2.625,5.595-4.006,8.496c-0.691,1.451-1.381,2.901-2.072,4.42c-2.072,4.49-4.144,9.117-6.285,13.883
		c-2.625,5.871-5.249,11.949-7.943,18.304c-2.556,6.009-5.18,12.294-7.805,18.718c-2.487,6.147-5.042,12.433-7.598,18.994
		c-2.279,5.802-4.559,11.811-6.907,17.958c-0.138,0.276-0.207,0.622-0.345,0.898c-2.279,6.078-4.628,12.363-6.976,18.787
		c-0.069,0.138-0.138,0.276-0.138,0.414l11.12-1.243c-0.207-0.069-0.414-0.069-0.691-0.138
		c13.331-1.658,31.012-11.604,42.409-23.898c5.249-5.664,10.015-12.294,14.436-20.099c3.315-5.802,6.354-12.225,9.325-19.409
		c2.556-6.216,5.042-12.985,7.391-20.307c-3.039,1.589-6.562,2.763-10.43,3.592c-0.691,0.138-1.381,0.276-2.072,0.414
		c-0.691,0.138-1.381,0.207-2.141,0.345c12.433-4.766,20.238-13.952,25.901-25.28c-3.246,2.21-8.565,5.111-14.919,6.562
		c-0.829,0.207-1.727,0.345-2.625,0.484c-0.207,0-0.414,0.069-0.691,0.069c4.282-1.796,7.943-3.799,11.12-6.216
		c0.691-0.484,1.312-1.036,1.934-1.589c0.967-0.829,1.865-1.727,2.763-2.625c0.553-0.622,1.105-1.174,1.658-1.796
		c1.243-1.451,2.417-3.039,3.453-4.766c0.345-0.553,0.691-1.036,0.967-1.589c0.414-0.829,0.829-1.589,1.174-2.348
		c1.727-3.453,3.108-6.562,4.213-9.324c0.553-1.381,1.036-2.625,1.451-3.799c0.138-0.483,0.345-0.898,0.484-1.381
		c0.414-1.312,0.829-2.487,1.105-3.523c0.414-1.52,0.691-2.763,0.829-3.661c-0.414,0.345-0.898,0.691-1.451,0.967
		c-3.73,2.21-10.153,4.282-15.333,5.249l10.222-1.105l-10.222,1.105c-0.069,0-0.138,0-0.207,0.069
		c-0.484,0.069-1.036,0.138-1.589,0.276c0.069-0.069,0.207-0.069,0.276-0.138l-34.949,3.799
		C-700.892-637.931-700.961-637.793-701.03-637.724z"/>
	<path id="path7346" class="st3" d="M-661.66-708.313c-3.108,4.766-6.493,10.222-10.153,16.3c-0.207,0.345-0.414,0.622-0.553,0.967
		c-3.177,5.318-6.493,11.12-10.015,17.544c-3.039,5.526-6.216,11.397-9.532,17.82c-2.901,5.526-5.802,11.397-8.91,17.613
		l34.949-3.799c10.153-4.697,14.712-8.91,19.132-15.057c1.174-1.658,2.348-3.453,3.523-5.318
		c3.592-5.595,7.114-11.742,10.222-17.889c3.039-5.94,5.733-11.811,7.736-17.06c1.312-3.384,2.348-6.493,3.108-9.255
		c0.622-2.417,1.105-4.697,1.52-6.907C-634.171-711.076-650.816-708.866-661.66-708.313z"/>
	<path id="path7348" class="st1" d="M-684.246-587.855c-0.691,0.138-1.381,0.207-2.141,0.345l0,0
		C-685.697-587.648-685.006-587.786-684.246-587.855z"/>
	<path id="path7350" class="st4" d="M-684.246-587.855c-0.691,0.138-1.381,0.207-2.141,0.345l0,0
		C-685.697-587.648-685.006-587.786-684.246-587.855z"/>
	<path id="path7362" class="st1" d="M-684.246-587.855c-0.691,0.138-1.381,0.207-2.141,0.345l0,0
		C-685.697-587.648-685.006-587.786-684.246-587.855z"/>
	<path id="path7364" class="st1" d="M-678.721-605.744c0.207,0,0.414-0.069,0.691-0.069
		C-678.237-605.813-678.445-605.744-678.721-605.744L-678.721-605.744z"/>
	<path id="path7366" class="st4" d="M-678.721-605.744c0.207,0,0.414-0.069,0.691-0.069
		C-678.237-605.813-678.445-605.744-678.721-605.744L-678.721-605.744z"/>
	<path id="path7378" class="st1" d="M-678.721-605.744c0.207,0,0.414-0.069,0.691-0.069
		C-678.237-605.813-678.445-605.744-678.721-605.744L-678.721-605.744z"/>
	<path id="path7380" class="st1" d="M-678.652-605.744L-678.652-605.744L-678.652-605.744L-678.652-605.744L-678.652-605.744
		L-678.652-605.744z"/>
	<path id="path7382" class="st4" d="M-678.652-605.744L-678.652-605.744L-678.652-605.744L-678.652-605.744L-678.652-605.744
		L-678.652-605.744z"/>
	<path id="path7394" class="st1" d="M-678.652-605.744L-678.652-605.744L-678.652-605.744L-678.652-605.744L-678.652-605.744
		L-678.652-605.744z"/>
</g>
<g id="g4701" transform="matrix(0.13272567,0.01947468,-0.01947468,0.13272567,170.19741,12.570146)">
	<path id="path4710" class="st3" d="M-893.832,112.43c-5.802,3.453-15.472,13.123-26.937,27.144l10.568,19.961
		c7.39-10.637,14.988-20.168,22.586-28.319c0.553-0.622,0.898-0.967,0.898-0.967c-0.276,0.345-0.622,0.622-0.898,0.967
		c-2.487,2.694-9.946,11.397-21.204,28.733c10.844-0.553,27.49-2.763,41.096-5.111c4.075-22.655-3.937-33.015-3.937-33.015
		S-881.883,105.316-893.832,112.43z"/>
	<path id="path4712" class="st1" d="M-911.79,226.257c0.069,0,0.138,0,0.207-0.069l-1.52,0.138
		c-0.069,0.069-0.207,0.069-0.276,0.138C-912.826,226.395-912.273,226.326-911.79,226.257z"/>
	<path id="path4714" class="st1" d="M-922.565,261.966c-0.829,0.207-1.727,0.345-2.625,0.483
		C-924.291,262.311-923.393,262.173-922.565,261.966z"/>
	<path id="path4716" class="st0" d="M-995.916,342.156c0.138-0.276,0.207-0.622,0.345-0.898c2.348-6.147,4.628-12.087,6.907-17.958
		c2.556-6.493,5.111-12.847,7.598-18.994c2.625-6.423,5.249-12.709,7.805-18.718c2.694-6.354,5.318-12.433,7.943-18.303
		c2.141-4.766,4.213-9.393,6.285-13.883c0.691-1.52,1.381-2.97,2.072-4.42c1.381-2.901,2.694-5.733,4.006-8.496
		c1.243-2.556,2.417-5.042,3.592-7.529c0.414-0.829,0.829-1.658,1.174-2.417c0.069-0.138,0.138-0.276,0.207-0.414l-1.312,0.138
		l-1.036-2.003c-0.069,0.207-0.207,0.414-0.276,0.622c-1.865,3.661-3.73,7.39-5.526,11.189c-1.036,2.141-2.072,4.351-3.177,6.562
		c-2.901,6.078-5.733,12.156-8.495,18.373c-2.832,6.216-5.595,12.502-8.288,18.718c-2.694,6.147-5.249,12.294-7.805,18.442
		c-2.556,6.147-5.042,12.225-7.46,18.303c-2.556,6.354-5.042,12.64-7.39,18.856c-0.553,1.381-1.105,2.832-1.589,4.213
		c-1.934,5.042-3.799,9.946-5.595,14.85l1.658,3.246l1.45-0.138c0.069-0.138,0.138-0.276,0.138-0.414
		C-1000.544,354.52-998.196,348.234-995.916,342.156z"/>
	<path id="path4718" class="st1" d="M-925.88,262.519L-925.88,262.519L-925.88,262.519L-925.88,262.519z"/>
	<path id="path4720" class="st1" d="M-929.402,279.993c-1.381,0.276-2.763,0.483-4.144,0.691l0,0
		c0.691-0.069,1.45-0.207,2.141-0.345C-930.715,280.27-930.024,280.131-929.402,279.993z"/>
	<path id="path4722" class="st4" d="M-929.402,279.993c-1.381,0.276-2.763,0.483-4.144,0.691l0,0
		c0.691-0.069,1.45-0.207,2.141-0.345C-930.715,280.27-930.024,280.131-929.402,279.993z"/>
	<path id="path4724" class="st1" d="M-925.811,262.519L-925.811,262.519C-925.88,262.519-925.88,262.519-925.811,262.519
		c0.207,0,0.414-0.069,0.622-0.069c0.898-0.138,1.796-0.276,2.625-0.483C-923.601,262.173-924.706,262.311-925.811,262.519
		L-925.811,262.519L-925.811,262.519z"/>
	<path id="path4726" class="st4" d="M-925.811,262.519L-925.811,262.519C-925.88,262.519-925.88,262.519-925.811,262.519
		c0.207,0,0.414-0.069,0.622-0.069c0.898-0.138,1.796-0.276,2.625-0.483C-923.601,262.173-924.706,262.311-925.811,262.519
		L-925.811,262.519L-925.811,262.519z"/>
	<path id="path4737" class="st3" d="M-941.421,211.062c3.246-6.009,6.492-11.88,9.739-17.613c3.384-5.94,6.838-11.673,10.36-17.267
		c0.207-0.345,0.414-0.691,0.622-0.967c3.453-5.456,6.907-10.706,10.429-15.748l-10.568-19.892c-0.76,0.967-1.589,1.934-2.417,2.97
		c-3.039,3.799-6.216,7.874-9.463,12.225c-3.661,4.904-7.39,10.084-11.258,15.541c-3.523,5.042-7.114,10.36-10.706,15.817
		c-3.039,4.697-6.078,9.463-9.117,14.367c-0.138,0.207-0.207,0.345-0.345,0.553l13.745,27.144
		C-947.361,222.458-944.391,216.726-941.421,211.062z"/>
	<path id="path4748" class="st3" d="M-1004.066,364.189c-1.796,4.973-3.661,10.084-5.456,15.333c0,0.069-0.069,0.138-0.069,0.207
		c-0.276,0.76-0.553,1.45-0.76,2.21c-1.243,3.523-2.279,6.7-4.766,13.883c4.075,1.865,7.321,6.7,10.36,12.225
		c-0.345-5.733-2.694-11.12-7.183-15.264c19.961,0.898,37.229-4.144,46.069-18.787c0.76-1.312,1.52-2.694,2.21-4.144
		c-4.075,5.111-9.048,7.321-18.511,6.769h-0.069h0.069c13.883-6.216,20.859-12.225,27.006-22.102
		c1.45-2.348,2.901-4.904,4.351-7.736c-12.156,12.502-26.246,16.024-41.096,13.331l-11.12,1.243
		C-1003.376,362.324-1003.721,363.222-1004.066,364.189z"/>
	<path id="path4759" class="st3" d="M-998.886,339.255c2.417-6.216,4.904-12.502,7.39-18.856c2.417-6.078,4.904-12.156,7.459-18.303
		c2.556-6.147,5.18-12.294,7.805-18.442c2.694-6.285,5.456-12.502,8.288-18.718c2.763-6.147,5.664-12.294,8.496-18.373
		c1.036-2.21,2.072-4.351,3.177-6.562c1.796-3.73,3.661-7.46,5.526-11.189c0.069-0.207,0.207-0.414,0.276-0.622l-13.607-27.075
		c-0.207,0.345-0.414,0.76-0.691,1.105c-3.177,5.249-6.423,10.568-9.532,16.024c-3.177,5.526-6.285,11.12-9.324,16.853
		c-2.556,4.835-5.042,9.67-7.529,14.574c-0.483,0.967-0.967,2.003-1.45,2.97c-2.97,6.147-5.733,12.156-8.15,17.889
		c-2.763,6.493-5.18,12.709-7.321,18.58c-1.381,3.868-2.694,7.598-3.868,11.189c-0.967,3.039-1.865,6.147-2.763,9.186
		c-2.072,7.183-3.799,14.366-5.249,21.55l13.814,27.282c1.796-4.904,3.73-9.808,5.595-14.85
		C-999.991,342.087-999.439,340.706-998.886,339.255z"/>
	<path id="path4770" class="st3" d="M-1020.16,332.003c-1.727,8.703-2.97,17.406-3.592,26.108c0,0.276-0.069,0.622-0.069,0.898
		c-4.282-6.907-15.886-13.676-15.817-13.607c8.288,12.018,14.574,23.898,15.472,35.571c-4.421,0.898-10.499-0.414-17.475-2.97
		c7.321,6.7,12.778,8.565,14.919,9.048c-6.7,0.414-13.676,5.042-20.721,10.361c10.291-4.213,18.649-5.871,24.589-4.49
		c-9.462,26.73-18.925,56.292-28.387,87.649c2.901-0.829,4.628-2.832,5.595-5.457c1.658-5.664,12.916-42.961,30.46-91.932
		c0.483-1.381,1.036-2.763,1.519-4.213c0.138-0.414,0.276-0.76,0.414-1.174c1.865-5.111,3.799-10.36,5.802-15.748
		c0.484-1.243,0.898-2.417,1.381-3.661v-0.069l-13.814-27.283C-1020.022,331.381-1020.091,331.658-1020.16,332.003z"/>
	<path id="path4781" class="st3" d="M-948.189,230.539c-0.414,0.829-0.76,1.589-1.174,2.417c-1.174,2.487-2.417,4.973-3.592,7.529
		c-1.312,2.763-2.625,5.595-4.006,8.496c-0.691,1.45-1.381,2.901-2.072,4.42c-2.072,4.49-4.144,9.117-6.285,13.883
		c-2.625,5.871-5.249,11.949-7.943,18.303c-2.556,6.009-5.18,12.294-7.805,18.718c-2.487,6.147-5.042,12.433-7.598,18.994
		c-2.279,5.802-4.559,11.811-6.907,17.958c-0.138,0.276-0.207,0.622-0.345,0.898c-2.279,6.078-4.628,12.363-6.976,18.787
		c-0.069,0.138-0.138,0.276-0.138,0.414l11.12-1.243c-0.207-0.069-0.414-0.069-0.691-0.138c13.33-1.658,31.012-11.604,42.409-23.898
		c5.249-5.664,10.015-12.294,14.435-20.099c3.315-5.802,6.354-12.225,9.324-19.409c2.556-6.216,5.042-12.985,7.39-20.306
		c-3.039,1.589-6.562,2.763-10.43,3.592c-0.691,0.138-1.381,0.276-2.072,0.414c-0.691,0.138-1.381,0.207-2.141,0.345
		c12.433-4.766,20.237-13.952,25.901-25.28c-3.246,2.21-8.565,5.111-14.919,6.562c-0.829,0.207-1.727,0.345-2.625,0.483
		c-0.207,0-0.414,0.069-0.691,0.069c4.282-1.796,7.943-3.799,11.12-6.216c0.691-0.483,1.312-1.036,1.934-1.589
		c0.967-0.829,1.865-1.727,2.763-2.625c0.553-0.622,1.105-1.174,1.658-1.796c1.243-1.45,2.417-3.039,3.453-4.766
		c0.345-0.553,0.691-1.036,0.967-1.589c0.414-0.829,0.829-1.589,1.174-2.348c1.727-3.453,3.108-6.562,4.213-9.324
		c0.553-1.381,1.036-2.625,1.45-3.799c0.138-0.483,0.345-0.898,0.483-1.381c0.414-1.312,0.829-2.487,1.105-3.523
		c0.414-1.52,0.691-2.763,0.829-3.661c-0.414,0.345-0.898,0.691-1.45,0.967c-3.73,2.21-10.153,4.282-15.333,5.249l10.222-1.105
		l-10.222,1.105c-0.069,0-0.138,0-0.207,0.069c-0.484,0.069-1.036,0.138-1.589,0.276c0.069-0.069,0.207-0.069,0.276-0.138
		l-34.949,3.799C-948.051,230.332-948.12,230.47-948.189,230.539z"/>
	<path id="path4792" class="st3" d="M-908.82,159.95c-3.108,4.766-6.493,10.222-10.153,16.3c-0.207,0.345-0.414,0.622-0.553,0.967
		c-3.177,5.318-6.493,11.12-10.015,17.544c-3.039,5.526-6.216,11.396-9.532,17.82c-2.901,5.526-5.802,11.396-8.91,17.613
		l34.949-3.799c10.153-4.697,14.712-8.91,19.132-15.057c1.174-1.658,2.348-3.453,3.523-5.318
		c3.592-5.595,7.114-11.742,10.222-17.889c3.039-5.94,5.733-11.811,7.736-17.06c1.312-3.384,2.348-6.493,3.108-9.255
		c0.622-2.417,1.105-4.697,1.52-6.907C-881.33,157.187-897.976,159.398-908.82,159.95z"/>
	<path id="path4794" class="st1" d="M-931.405,280.408c-0.691,0.138-1.381,0.207-2.141,0.345l0,0
		C-932.856,280.615-932.165,280.477-931.405,280.408z"/>
	<path id="path4796" class="st4" d="M-931.405,280.408c-0.691,0.138-1.381,0.207-2.141,0.345l0,0
		C-932.856,280.615-932.165,280.477-931.405,280.408z"/>
	<path id="path4807" class="st1" d="M-931.405,280.408c-0.691,0.138-1.381,0.207-2.141,0.345l0,0
		C-932.856,280.615-932.165,280.477-931.405,280.408z"/>
	<path id="path4809" class="st1" d="M-925.88,262.519c0.207,0,0.414-0.069,0.691-0.069
		C-925.396,262.45-925.604,262.519-925.88,262.519L-925.88,262.519z"/>
	<path id="path4811" class="st4" d="M-925.88,262.519c0.207,0,0.414-0.069,0.691-0.069
		C-925.396,262.45-925.604,262.519-925.88,262.519L-925.88,262.519z"/>
	<path id="path4822" class="st1" d="M-925.88,262.519c0.207,0,0.414-0.069,0.691-0.069
		C-925.396,262.45-925.604,262.519-925.88,262.519L-925.88,262.519z"/>
	<path id="path4824" class="st1" d="M-925.811,262.519L-925.811,262.519L-925.811,262.519L-925.811,262.519L-925.811,262.519
		L-925.811,262.519z"/>
	<path id="path4826" class="st4" d="M-925.811,262.519L-925.811,262.519L-925.811,262.519L-925.811,262.519L-925.811,262.519
		L-925.811,262.519z"/>
	<path id="path4837" class="st1" d="M-925.811,262.519L-925.811,262.519L-925.811,262.519L-925.811,262.519L-925.811,262.519
		L-925.811,262.519z"/>
</g>
<g id="g4855" transform="translate(385.61463,-191.53704)">
</g>
<path class="st1" d="M37.516,27.853"/>
<path class="st3" d="M17.974,28.069"/>
<path class="st3" d="M52.168,72.158"/>
</svg>
