<?xml version="1.0" encoding="utf-8"?>
<!-- Generator: Adobe Illustrator 23.1.0, SVG Export Plug-In . SVG Version: 6.00 Build 0)  -->
<svg version="1.1" id="Слой_1" xmlns="http://www.w3.org/2000/svg" xmlns:xlink="http://www.w3.org/1999/xlink" x="0px" y="0px"
	 viewBox="0 0 64 64" style="enable-background:new 0 0 64 64;" xml:space="preserve">
<style type="text/css">
	.st0{fill:#FFFFFF;stroke:#FFFFFF;stroke-miterlimit:10;}
	.st1{fill:#494947;}
	.st2{fill:#FFFFFF;}
	.st3{fill:none;}
	.st4{fill:#FFFFFF;stroke:#FFFFFF;stroke-width:3;stroke-miterlimit:10;}
</style>
<circle class="st0" cx="31.8" cy="32" r="28.4"/>
<path class="st1" d="M32,0C14.3,0,0,14.3,0,32s14.3,32,32,32s32-14.3,32-32S49.7,0,32,0z"/>
<path class="st1" d="M33,8.5"/>
<path class="st2" d="M31.8,13.7"/>
<path d="M34.8,22.9L34.8,22.9L34.8,22.9L34.8,22.9"/>
<rect x="10.4" y="17.8" class="st3" width="43.4" height="28.5"/>
<path class="st3" d="M-1.263,10.528h66.526v38.943H-1.263V10.528z"/>
<path class="st4" d="M52.7,40.606c-2.547-0.055-4.519,0.162-6.174,0.753c-0.478,0.161-1.238,0.161-1.304,0.671
	c0.258,0.216,0.288,0.564,0.512,0.862c0.382,0.537,1.047,1.26,1.654,1.637c0.667,0.432,1.337,0.859,2.038,1.235
	c1.238,0.647,2.641,1.023,3.847,1.668c0.703,0.375,1.401,0.86,2.105,1.263c0.346,0.215,0.567,0.564,1.016,0.699v-0.082
	c-0.225-0.242-0.289-0.591-0.509-0.86l-0.956-0.778c-0.923-1.047-2.071-1.962-3.309-2.713c-1.019-0.593-3.247-1.399-3.66-2.39
	l-0.065-0.055c0.7-0.055,1.531-0.27,2.196-0.435c1.083-0.241,2.07-0.186,3.181-0.427c0.511-0.108,1.018-0.243,1.531-0.376v-0.242
	c-0.576-0.484-0.986-1.127-1.592-1.585c-1.62-1.182-3.406-2.338-5.251-3.306c-0.988-0.539-2.259-0.886-3.311-1.344
	c-0.379-0.162-1.018-0.242-1.241-0.511c-0.571-0.591-0.892-1.37-1.306-2.07c-0.92-1.477-1.814-3.116-2.607-4.678
	c-0.574-1.047-0.923-2.094-1.624-3.063c-3.28-4.568-6.841-7.335-12.315-10.051c-1.176-0.565-2.576-0.806-4.071-1.103l-2.388-0.106
	c-0.509-0.188-1.02-0.7-1.464-0.942c-1.816-0.967-6.492-3.063-7.827-0.296c-0.86,1.749,1.273,3.468,2.005,4.355
	c0.541,0.616,1.242,1.317,1.62,2.016c0.224,0.457,0.287,0.942,0.511,1.424c0.509,1.183,0.986,2.499,1.655,3.602
	c0.349,0.563,0.73,1.154,1.176,1.663c0.256,0.298,0.7,0.429,0.797,0.915c-0.444,0.535-0.479,1.343-0.733,2.015
	c-1.145,3.037-0.698,6.799,0.925,9.03c0.508,0.672,1.719,2.151,3.339,1.584c1.434-0.483,1.117-2.015,1.529-3.358
	c0.095-0.324,0.032-0.537,0.223-0.75v0.053c0.444,0.752,0.892,1.476,1.303,2.23c0.987,1.316,2.706,2.687,4.138,3.599
	c0.762,0.486,1.366,1.318,2.321,1.615v-0.081h-0.063c-0.193-0.241-0.476-0.349-0.73-0.536c-0.574-0.484-1.21-1.076-1.655-1.612
	c-1.334-1.506-2.515-3.173-3.562-4.893c-0.513-0.835-0.955-1.747-1.368-2.58c-0.193-0.322-0.193-0.806-0.512-0.968
	c-0.479,0.591-1.176,1.102-1.526,1.826c-0.606,1.158-0.669,2.581-0.894,4.062l-0.125,0.052c-1.014-0.215-1.366-1.101-1.751-1.853
	c-0.953-1.909-1.113-4.974-0.286-7.177c0.221-0.563,1.18-2.337,0.797-2.874c-0.192-0.514-0.829-0.807-1.178-1.212
	c-0.411-0.509-0.86-1.154-1.147-1.719c-0.763-1.504-1.147-3.171-1.969-4.675c-0.384-0.701-1.051-1.426-1.591-2.071
	c-0.607-0.725-1.273-1.236-1.753-2.096c-0.158-0.296-0.381-0.779-0.126-1.101c0.062-0.216,0.192-0.296,0.446-0.35
	c0.412-0.294,1.59,0.08,2.004,0.242c1.18,0.403,2.166,0.779,3.151,1.343c0.446,0.27,0.923,0.781,1.495,0.915h0.67
	c1.016,0.187,2.162,0.052,3.119,0.295c1.686,0.458,3.213,1.129,4.583,1.853c4.168,2.232,7.605,5.404,9.926,9.193
	c0.381,0.617,0.543,1.183,0.89,1.827c0.67,1.318,1.499,2.662,2.165,3.952c0.669,1.263,1.306,2.552,2.261,3.601
	c0.476,0.564,2.389,0.86,3.247,1.155c0.635,0.241,1.623,0.455,2.195,0.751c1.083,0.563,2.161,1.21,3.179,1.829
	C51.013,39.396,52.606,40.068,52.7,40.606 M20.241,17.251c-0.439-0.004-0.877,0.042-1.302,0.135v0.054h0.061
	c0.256,0.429,0.702,0.727,1.02,1.102c0.256,0.431,0.479,0.858,0.73,1.288l0.061-0.053c0.449-0.268,0.672-0.699,0.672-1.344
	c-0.193-0.19-0.223-0.376-0.384-0.564C20.911,17.601,20.498,17.467,20.241,17.251"/>
</svg>
