<?xml version="1.0" encoding="utf-8"?>
<!-- Generator: Adobe Illustrator 23.1.0, SVG Export Plug-In . SVG Version: 6.00 Build 0)  -->
<svg version="1.1" id="Слой_1" xmlns="http://www.w3.org/2000/svg" xmlns:xlink="http://www.w3.org/1999/xlink" x="0px" y="0px"
	 viewBox="0 0 512 512" style="enable-background:new 0 0 512 512;" xml:space="preserve">
<style type="text/css">
	.st0{fill:#FFFFFF;stroke:#000000;stroke-miterlimit:10;}
	.st1{fill:#333330;}
</style>
<circle class="st0" cx="255.77" cy="256" r="222"/>
<path class="st1" d="M159.2,268.8L159.2,268.8L159.2,268.8z"/>
<path class="st1" d="M161.6,349.6c-1.6,0-2.4,0-3.2,0C160,349.6,160.8,349.6,161.6,349.6z"/>
<path class="st1" d="M157.6,324.8c-4.8,1.6-8.8,6.4-8.8,12s3.2,10.4,8.8,12C157.6,340.8,157.6,332.8,157.6,324.8z"/>
<path class="st1" d="M157.6,244c-4.8,1.6-8.8,6.4-8.8,12s4,10.4,8.8,12C157.6,260,157.6,252,157.6,244z"/>
<path class="st1" d="M161.6,268.8c0.8,0,2.4,0,3.2-0.8C164.8,268.8,163.2,268.8,161.6,268.8z"/>
<path class="st1" d="M301.9,170.4c0.8,0,1.6,0,1.6,0l4-2.4c2.4-1.6,4.8-1.6,7.2,0l4,2.4c0.8,0,1.6,0,1.6,0c0.8-0.8,1.6-1.6,1.6-2.4
	v-38.4h-21.6V168C300.3,168.8,301.1,169.6,301.9,170.4z"/>
<path class="st1" d="M164.8,349.6L164.8,349.6L164.8,349.6z"/>
<path class="st1" d="M157.6,162.4c-4.8,1.6-8.8,6.4-8.8,12s4,10.4,8.8,12C157.6,178.4,157.6,170.4,157.6,162.4z"/>
<path class="st1" d="M158.4,187.2h0.8C159.2,187.2,159.2,187.2,158.4,187.2z"/>
<path class="st1" d="M170.4,132c-2.4,0-4,1.6-4,4c0,16.8,0,33.6,0.8,50.4c4.8-1.6,8-6.4,8-12c0-2.4,1.6-4,4-4s4,1.6,4,4
	c0,10.4-7.2,19.2-16.8,20.8c0,24,0,48,0,72c4.8-1.6,8.8-6.4,8.8-12c0-2.4,1.6-4,4-4s4,1.6,4,4c0,10.4-7.2,19.2-16.8,20.8
	c0,24,0,48,0,72c4.8-1.6,8.8-6.4,8.8-12c0-2.4,1.6-4,4-4s4,1.6,4,4c0,10.4-7.2,19.2-16.8,20.8V384c0,2.4,1.6,4,4,4h20
	c0.8-85.6,0.8-171.2,1.6-256.8h-21.6V132z"/>
<path class="st1" d="M319.2,283.2c-4-1.6-8-4-12-6.4c-19.2,17.6-49.6,17.6-68.8,0c-4,2.4-8,4-12,5.6c-3.2,1.6-5.6,4.8-5.6,8v20.8
	c0,2.4,1.6,4,4,4H320c2.4,0,4-1.6,4-4v-20.8C324,287.2,322.4,284,319.2,283.2z"/>
<path class="st1" d="M358.4,148.8h-4V388h4c2.4,0,4-1.6,4-4V153.6C363.2,151.2,360.8,148.8,358.4,148.8z"/>
<path class="st1" d="M272.8,264.8c14.4,0,25.6-11.2,25.6-25.6c0-14.4-11.2-25.6-25.6-25.6s-25.6,11.2-25.6,25.6
	C247.2,252.8,259.2,264.8,272.8,264.8z"/>
<path class="st1" d="M164.8,187.2c-0.8,0-1.6,0-2.4,0C163.2,187.2,164,187.2,164.8,187.2z"/>
<path class="st1" d="M256,0C114.4,0,0,114.4,0,256s114.4,256,256,256s256-114.4,256-256S397.6,0,256,0z M371.2,384
	c0,7.2-5.6,12.8-12.8,12.8h-188c-7.2,0-12.8-5.6-12.8-12.8v-26.4c-9.6-2.4-16.8-10.4-16.8-20.8s7.2-19.2,16.8-20.8v-39.2
	c-8.8-1.6-15.2-8-16.8-16.8c-2.4-11.2,4.8-23.2,16.8-25.6v-39.2c-8.8-1.6-15.2-8-16.8-16.8c-2.4-11.2,4.8-23.2,16.8-25.6V136
	c0-7.2,5.6-12.8,12.8-12.8h171.2c7.2,0,12.8,5.6,12.8,12.8v4h4c7.2,0,12.8,5.6,12.8,12.8V384z"/>
</svg>
