<?xml version="1.0" encoding="utf-8"?>
<!-- Generator: Adobe Illustrator 23.1.0, SVG Export Plug-In . SVG Version: 6.00 Build 0)  -->
<svg version="1.1" id="Слой_1" xmlns="http://www.w3.org/2000/svg" xmlns:xlink="http://www.w3.org/1999/xlink" x="0px" y="0px"
	 viewBox="0 0 64 64" style="enable-background:new 0 0 64 64;" xml:space="preserve">
<style type="text/css">
	.st0{fill:#494947;}
	.st1{fill:#FFFFFF;}
	.st2{fill-rule:evenodd;clip-rule:evenodd;fill:#FFFFFF;}
</style>
<path class="st0" d="M33.032,8.493"/>
<path class="st1" d="M31.809,13.655"/>
<path d="M34.816,22.895L34.816,22.895L34.816,22.895L34.816,22.895"/>
<g id="Page-1">
	<g id="Icons-Communication" transform="translate(-85.000000, -126.000000)">
		<g id="phone" transform="translate(85.000000, 126.000000)">
			<path id="Shape" class="st2" d="M17.687,28.819c3.711,7.422,10.072,13.518,17.494,17.494l5.831-5.831
				c0.795-0.795,1.855-1.06,2.651-0.53c2.916,1.06,6.096,1.59,9.542,1.59c1.59,0,2.651,1.06,2.651,2.651v9.012
				c0,1.59-1.06,2.651-2.651,2.651c-24.916,0-45.06-20.145-45.06-45.06c0-1.59,1.06-2.651,2.651-2.651h9.277
				c1.59,0,2.651,1.06,2.651,2.651c0,3.181,0.53,6.361,1.59,9.542c0.265,0.795,0,1.855-0.53,2.651L17.687,28.819L17.687,28.819z"/>
		</g>
	</g>
</g>
</svg>
