<?xml version="1.0" encoding="utf-8"?>
<!-- Generator: Adobe Illustrator 23.1.0, SVG Export Plug-In . SVG Version: 6.00 Build 0)  -->
<svg version="1.1" id="Слой_1" xmlns="http://www.w3.org/2000/svg" xmlns:xlink="http://www.w3.org/1999/xlink" x="0px" y="0px"
	 viewBox="0 0 64 64" style="enable-background:new 0 0 64 64;" xml:space="preserve">
<style type="text/css">
	.st0{fill:#494947;}
	.st1{fill:#FFFFFF;}
</style>
<path class="st0" d="M33.032,8.493"/>
<path class="st1" d="M31.809,13.655"/>
<path d="M34.816,22.895L34.816,22.895L34.816,22.895L34.816,22.895"/>
<g>
	<g>
		<path class="st1" d="M21.01,6.226c-10.293,0-18.669,8.374-18.669,18.669c0,12.775,16.707,31.53,17.418,32.321
			c0.668,0.744,1.834,0.743,2.502,0C22.973,56.423,39.68,37.67,39.68,24.895C39.679,14.6,31.303,6.226,21.01,6.226z M21.01,34.288
			c-5.179,0-9.393-4.214-9.393-9.393s4.214-9.393,9.393-9.393s9.393,4.214,9.393,9.393S26.189,34.288,21.01,34.288z"/>
	</g>
</g>
</svg>
