<?xml version="1.0" encoding="utf-8"?>
<!-- Generator: Adobe Illustrator 23.1.0, SVG Export Plug-In . SVG Version: 6.00 Build 0)  -->
<svg version="1.1" id="Layer_1" xmlns="http://www.w3.org/2000/svg" xmlns:xlink="http://www.w3.org/1999/xlink" x="0px" y="0px"
	 viewBox="0 0 512 512" style="enable-background:new 0 0 512 512;" xml:space="preserve">
<style type="text/css">
	.st0{fill:#FFFFFF;}
	.st1{fill:#333330;}
	.st2{fill:#FFFFFD;stroke:#333330;stroke-width:5;stroke-miterlimit:10;}
	.st3{fill:#FFFFFD;stroke:#333330;stroke-width:5;stroke-linecap:round;stroke-linejoin:round;stroke-miterlimit:10;}
</style>
<circle class="st0" cx="258.3" cy="253.762" r="245.5"/>
<path class="st1" d="M225.2,222.3c-21.2,10.5-20.5,9.8-21.8,11.8L171,282.8l87.3,87.3l87.3-87.3l-32.4-48.6
	c-1.3-1.9-0.4-1.2-21.8-11.8c-3.5-1.8-6.3-4.5-8.3-7.9l-24.9-44.8l-24.8,44.7C231.6,217.8,228.7,220.6,225.2,222.3z"/>
<path class="st1" d="M200.1,220.3c20.5-10.2,20.5-9.6,22.1-12.3l25.7-46.3c-9.7-2-18.5-6.7-25.6-13.6
	c-48.5,76.2-96.9,152.4-145.4,228.6c-0.3,0.4-0.4,0.8-0.4,1.3c0.1,0.5,0.3,0.9,0.7,1.2c0.3,0.4,0.8,0.6,1.3,0.6s1-0.2,1.3-0.5
	c25.7-20.6,24.2-19.3,24.9-20.4l87.9-132C194.5,224.1,197,221.8,200.1,220.3z"/>
<path class="st1" d="M246.3,147.8c16,5.2,33.6-0.5,43.5-14.1c4.9-6.6,7.5-14.6,7.5-22.8c0-21.5-17.4-39-39-39c-21.5,0-39,17.4-39,39
	C219.4,127.6,230.3,142.6,246.3,147.8z M258.3,91.3c10.8,0,19.5,8.7,19.5,19.5s-8.7,19.5-19.5,19.5s-19.5-8.7-19.5-19.5
	C238.8,100,247.6,91.3,258.3,91.3z"/>
<path class="st1" d="M256,0C114.6,0,0,114.6,0,256s114.6,256,256,256s256-114.6,256-256S397.4,0,256,0z M448.2,388.9
	c-5.5,4.9-13.7,5.1-19.4,0.5l-23.7-19c-2.9-2.2-2.2-1.7-22.8-32.5c-98.3,98.5-99.1,99.2-101,101.2c-12.7,12.7-33.3,12.7-46,0
	l-16.2-16.2c-0.6,0,6.6,6.6-84.9-84.9l-18.7,28.2c-2.1,3.2-1.3,2.1-27.7,23.4c-5.7,4.6-13.9,4.4-19.4-0.5s-6.5-13.1-2.6-19.2
	c13-20.4,26-40.9,39-61.3l-30.1-30.1c-6.4-6.4-6.4-16.9,0-23.4l22.6-22.5c3.1-3.1,7.3-4.9,11.7-4.9s8.6,1.8,11.7,4.9l19.8,19.8
	l73.2-115c-13-21.8-8.3-49.8,11-66.2c19.4-16.4,47.7-16.4,67.1,0s24,44.4,11,66.2l73.2,115l19.8-19.8c3.1-3.1,7.3-4.9,11.7-4.9
	s8.6,1.8,11.7,4.9l22.5,22.5c3.1,3.1,4.8,7.3,4.8,11.7c0,4.4-1.7,8.6-4.8,11.7c-28.5,28.5,33.8-33.8-30.1,30.1l39,61.3
	C454.7,375.8,453.7,384,448.2,388.9z"/>
<path class="st1" d="M294.4,148.1c-7.1,6.9-16,11.6-25.6,13.6c27.7,49.8,26,47.7,28.5,49c19.8,9.8,23,10.5,26.8,16.2
	c93.7,140.5,88.2,132.5,89,133.2l23.9,19.2c0.3,0.3,0.8,0.5,1.3,0.5s0.9-0.2,1.2-0.6c0.4-0.3,0.6-0.7,0.7-1.2s-0.1-0.9-0.4-1.3
	L294.4,148.1z"/>
<path class="st2" d="M130.7,264.8"/>
<path class="st3" d="M46.9,326.6"/>
<path class="st3" d="M254.9,311.8"/>
</svg>
