<?xml version="1.0" encoding="utf-8"?>
<!-- Generator: Adobe Illustrator 23.1.0, SVG Export Plug-In . SVG Version: 6.00 Build 0)  -->
<svg version="1.1" id="Слой_1" xmlns="http://www.w3.org/2000/svg" xmlns:xlink="http://www.w3.org/1999/xlink" x="0px" y="0px"
	 viewBox="0 0 64 64" style="enable-background:new 0 0 64 64;" xml:space="preserve">
<style type="text/css">
	.st0{fill:#FFFFFF;}
	.st1{fill:#494947;}
	.st2{fill:#FFFFFF;stroke:#FFFFFF;stroke-miterlimit:10;}
</style>
<circle class="st0" cx="31.352" cy="32" r="28.105"/>
<path class="st1" d="M32,0C14.3,0,0,14.3,0,32s14.3,32,32,32s32-14.3,32-32S49.7,0,32,0z"/>
<path class="st1" d="M33.032,8.493"/>
<path class="st0" d="M31.809,13.655"/>
<g>
	<circle class="st2" cx="31.352" cy="31.99" r="4.372"/>
	<path class="st2" d="M53.294,27.697c-1.51-1.272-3.657-2.385-6.201-3.259c-0.477-0.159-1.033-0.318-1.59-0.477
		c0.079-0.397,0.159-0.715,0.239-1.113c1.192-5.883,0.318-10.494-2.226-12.004c-1.272-0.715-3.021-0.715-5.008,0
		c-1.828,0.715-3.895,1.987-5.883,3.736c-0.397,0.318-0.795,0.715-1.192,1.113c-0.238-0.238-0.556-0.477-0.795-0.715
		c-4.452-3.975-8.904-5.565-11.527-4.054c-1.272,0.715-2.146,2.226-2.544,4.372c-0.318,1.908-0.238,4.372,0.318,6.996
		c0.079,0.556,0.238,1.033,0.397,1.59c-0.636,0.159-1.272,0.397-1.828,0.556c-5.326,1.828-8.506,4.69-8.506,7.552
		c0,1.51,0.874,3.1,2.544,4.452c1.59,1.351,3.816,2.544,6.36,3.418c0.397,0.159,0.874,0.318,1.351,0.397
		c-0.159,0.556-0.238,1.192-0.397,1.749c-1.033,5.485-0.159,9.699,2.305,11.13c0.636,0.397,1.431,0.556,2.305,0.556
		s1.828-0.159,2.862-0.556c1.987-0.715,4.054-1.987,6.121-3.816c0.318-0.318,0.715-0.636,1.033-0.954
		c0.477,0.397,0.874,0.795,1.351,1.192c3.1,2.703,6.121,4.134,8.506,4.134c0.874,0,1.669-0.159,2.305-0.556
		c1.272-0.795,2.226-2.305,2.623-4.452c0.397-2.067,0.318-4.531-0.238-7.234c-0.079-0.397-0.159-0.874-0.318-1.272
		c0.318-0.079,0.636-0.159,0.874-0.318c5.724-1.908,9.222-4.929,9.222-7.95C55.758,30.559,54.884,29.049,53.294,27.697z
		 M39.222,12.831c1.431-0.477,2.544-0.556,3.259-0.159c1.431,0.795,2.385,4.213,1.272,9.778c-0.079,0.318-0.159,0.636-0.238,0.954
		c-2.067-0.477-4.213-0.795-6.519-1.033c-1.351-1.908-2.703-3.657-4.134-5.167c0.397-0.397,0.715-0.715,1.113-1.033
		C35.804,14.58,37.632,13.467,39.222,12.831z M38.189,36.045c-0.795,1.351-1.51,2.623-2.305,3.736
		c-1.431,0.079-2.941,0.159-4.452,0.159c-1.51,0-3.021-0.079-4.452-0.159c-0.795-1.192-1.669-2.464-2.385-3.816
		c-0.795-1.272-1.431-2.623-2.067-3.975c0.636-1.351,1.351-2.623,2.067-3.895l0,0c0.795-1.272,1.59-2.544,2.385-3.816
		c1.431-0.079,2.941-0.159,4.452-0.159c1.51,0,3.021,0.079,4.452,0.159c0.795,1.192,1.59,2.464,2.385,3.736
		c0.795,1.351,1.51,2.623,2.146,3.895C39.62,33.342,38.984,34.693,38.189,36.045z M41.369,34.455
		c0.636,1.51,1.192,2.941,1.669,4.293c-1.431,0.318-2.941,0.556-4.531,0.795c0.477-0.795,1.033-1.669,1.51-2.464
		C40.494,36.204,40.971,35.329,41.369,34.455z M31.431,45.505c-0.954-1.033-1.987-2.226-2.941-3.498
		c0.954,0,1.908,0.079,2.862,0.079c1.033,0,1.987,0,2.941-0.079C33.339,43.279,32.385,44.471,31.431,45.505z M24.276,39.543
		c-1.59-0.159-3.1-0.397-4.531-0.715c0.397-1.431,0.954-2.862,1.59-4.293c0.477,0.874,0.874,1.669,1.351,2.544
		C23.243,37.953,23.72,38.748,24.276,39.543z M22.766,27.061c-0.477,0.874-0.954,1.669-1.351,2.544
		c-0.636-1.431-1.113-2.862-1.59-4.213c1.431-0.318,2.862-0.556,4.452-0.795C23.72,25.392,23.243,26.266,22.766,27.061z
		 M31.352,18.714c0.954,1.033,1.908,2.226,2.862,3.498c-0.954-0.079-1.908-0.079-2.941-0.079c-0.954,0-1.908,0-2.862,0.079
		C29.444,20.94,30.398,19.747,31.352,18.714z M39.938,27.061c-0.477-0.874-0.954-1.669-1.51-2.464
		c1.59,0.159,3.021,0.477,4.452,0.795c-0.397,1.351-0.954,2.782-1.59,4.213C40.971,28.81,40.494,27.936,39.938,27.061z
		 M18.87,21.894c-0.477-2.385-0.556-4.531-0.238-6.201c0.238-1.431,0.795-2.464,1.51-2.941c1.431-0.795,4.849,0,9.063,3.816
		c0.238,0.238,0.477,0.477,0.715,0.715c-1.431,1.51-2.782,3.259-4.134,5.167c-2.305,0.238-4.531,0.556-6.519,1.033
		C19.109,22.848,19.029,22.371,18.87,21.894z M16.565,37.953c-5.167-1.749-7.552-4.293-7.552-5.962c0-1.59,2.226-3.895,7.075-5.565
		c0.556-0.159,1.113-0.397,1.669-0.556c0.636,1.987,1.431,4.054,2.385,6.201c-0.954,2.146-1.828,4.213-2.385,6.28
		C17.36,38.191,16.962,38.112,16.565,37.953z M21.414,51.706c-0.556,0-0.954-0.079-1.272-0.318
		c-1.351-0.795-2.305-3.816-1.272-8.904c0.079-0.556,0.238-1.033,0.318-1.59c1.987,0.477,4.213,0.795,6.598,0.954
		c1.351,1.908,2.782,3.657,4.213,5.167c-0.318,0.318-0.636,0.556-0.954,0.874C25.946,50.593,23.163,51.706,21.414,51.706z
		 M43.913,41.927c1.033,5.326,0,8.665-1.351,9.46s-4.452,0.079-8.347-3.339c-0.397-0.318-0.795-0.715-1.192-1.113
		c1.351-1.51,2.782-3.259,4.134-5.167c2.385-0.239,4.611-0.556,6.598-1.033C43.754,41.132,43.833,41.53,43.913,41.927z M45.9,37.953
		c-0.238,0.079-0.556,0.159-0.795,0.239c-0.636-1.908-1.431-4.054-2.464-6.201c0.954-2.067,1.749-4.134,2.385-6.121
		c0.477,0.159,0.954,0.318,1.431,0.477c2.305,0.795,4.213,1.828,5.485,2.862c1.113,0.954,1.749,1.908,1.749,2.782
		C53.691,33.66,51.227,36.204,45.9,37.953z"/>
</g>
</svg>
