<?xml version="1.0" encoding="utf-8"?>
<!-- Generator: Adobe Illustrator 23.1.0, SVG Export Plug-In . SVG Version: 6.00 Build 0)  -->
<svg version="1.1" id="Слой_1" xmlns="http://www.w3.org/2000/svg" xmlns:xlink="http://www.w3.org/1999/xlink" x="0px" y="0px"
	 viewBox="0 0 512 512" style="enable-background:new 0 0 512 512;" xml:space="preserve">
<style type="text/css">
	.st0{fill:#FFFFFF;stroke:#000000;stroke-miterlimit:10;}
	.st1{fill:#333330;}
</style>
<circle class="st0" cx="256.05" cy="256" r="232.275"/>
<path class="st1" d="M256,0C114.6,0,0,114.6,0,256s114.6,256,256,256s256-114.6,256-256S397.4,0,256,0z M384.1,319
	c0,0.5,0,3.3,0,4.2c0,31.6-57.4,65.4-128.1,65.4s-128.1-34-128.1-65.4c0-0.9,0-3.7,0-4.2c0,0,0-41.7,0-55.6c0-12.2,8.9-6.8,8.9-6.8
	l97.7,59.9c6,3.7,13.6,5.6,21.6,5.6c8,0,15.7-2.1,21.6-5.6L377.9,255c0,0,6.3-4.7,6.3,5C384.1,274.7,384.1,319,384.1,319z
	 M405.1,378.8c-9.6,0-17.5-7.8-17.5-17.5c0-6.4,3.5-11.9,8.6-15c0.5-0.3,1.7-0.9,1.7-2.2c0-22.8,0-91.5,0-91.5s-0.5-4.4,1.8-6.4
	c1.9-1.7,7.6-4.9,9.8-6c2.8-1.5,2.8,3.2,2.8,3.2s0,75.6,0,100.9c0,1.3,1,1.9,1.5,2.2c5.1,3.1,8.7,8.6,8.7,15
	C422.6,371,414.7,378.8,405.1,378.8z M418.5,208.9l-148.9,91.2c-7.4,4.6-19.8,4.6-27.3,0L93.4,208.9c-7.4-4.6-7.4-12.2,0-16.7
	l148.9-74.4c7.4-4.6,19.8-4.6,27.3,0l148.9,74.4C425.9,196.7,425.9,204.3,418.5,208.9z"/>
</svg>
