<?xml version="1.0" encoding="utf-8"?>
<!-- Generator: Adobe Illustrator 23.1.0, SVG Export Plug-In . SVG Version: 6.00 Build 0)  -->
<svg version="1.1" id="Слой_1" xmlns="http://www.w3.org/2000/svg" xmlns:xlink="http://www.w3.org/1999/xlink" x="0px" y="0px"
	 viewBox="0 0 64 64" style="enable-background:new 0 0 64 64;" xml:space="preserve">
<style type="text/css">
	.st0{fill:#494947;}
	.st1{fill:#FFFFFF;}
</style>
<path class="st0" d="M33.032,8.493"/>
<path class="st1" d="M31.809,13.655"/>
<path d="M34.816,22.895L34.816,22.895L34.816,22.895L34.816,22.895"/>
<g>
	<g>
		<path id="Skype" class="st1" d="M55.091,35.655c0.187-1.195,0.293-2.402,0.293-3.644c0-12.91-10.462-23.384-23.384-23.384
			c-1.242,0-2.46,0.105-3.644,0.293c-2.167-1.336-4.71-2.109-7.428-2.109C13.126,6.812,6.8,13.138,6.8,20.941
			c0,2.718,0.773,5.26,2.109,7.416C8.721,29.551,8.628,30.758,8.628,32C8.628,44.91,19.09,55.372,32,55.372
			c1.242,0,2.46-0.094,3.655-0.281c2.156,1.336,4.698,2.097,7.416,2.097c7.803,0,14.129-6.326,14.129-14.129
			C57.188,40.353,56.415,37.811,55.091,35.655z M43.095,42.638c-0.984,1.429-2.437,2.531-4.335,3.339
			c-1.898,0.797-4.147,1.207-6.748,1.207c-3.116,0-5.694-0.539-7.72-1.64c-1.441-0.785-2.613-1.839-3.515-3.163
			s-1.359-2.613-1.359-3.866c0-0.738,0.281-1.394,0.832-1.91c0.562-0.527,1.277-0.797,2.121-0.797c0.691,0,1.289,0.211,1.769,0.621
			c0.48,0.41,0.89,1.019,1.218,1.804c0.398,0.926,0.82,1.687,1.289,2.296c0.457,0.609,1.09,1.113,1.921,1.511
			c0.82,0.398,1.91,0.597,3.28,0.597c1.863,0,3.374-0.398,4.534-1.207s1.722-1.781,1.722-2.964c0-0.949-0.305-1.687-0.914-2.273
			c-0.621-0.597-1.429-1.043-2.425-1.359c-0.996-0.316-2.343-0.656-4.03-1.008c-2.261-0.492-4.159-1.066-5.682-1.734
			c-1.535-0.668-2.753-1.57-3.667-2.706c-0.902-1.16-1.359-2.589-1.359-4.288c0-1.617,0.48-3.069,1.429-4.335
			c0.961-1.265,2.343-2.238,4.147-2.905c1.792-0.679,3.913-1.008,6.338-1.008c1.933,0,3.608,0.223,5.038,0.668
			c1.418,0.445,2.589,1.043,3.538,1.792c0.937,0.738,1.628,1.523,2.062,2.343c0.433,0.82,0.656,1.628,0.656,2.413
			c0,0.726-0.281,1.394-0.832,1.968c-0.551,0.586-1.254,0.879-2.085,0.879c-0.738,0-1.324-0.176-1.734-0.539
			c-0.398-0.351-0.808-0.914-1.254-1.687c-0.562-1.09-1.242-1.933-2.027-2.542c-0.762-0.597-2.027-0.902-3.796-0.902
			c-1.628,0-2.929,0.328-3.913,0.984s-1.464,1.429-1.464,2.331c0,0.562,0.164,1.043,0.492,1.441c0.328,0.41,0.797,0.762,1.382,1.066
			c0.597,0.305,1.195,0.539,1.804,0.703c0.609,0.176,1.628,0.422,3.034,0.762c1.769,0.387,3.374,0.808,4.815,1.277
			c1.441,0.469,2.671,1.031,3.69,1.699s1.828,1.523,2.39,2.554c0.574,1.031,0.867,2.296,0.867,3.772
			C44.582,39.615,44.09,41.22,43.095,42.638z"/>
	</g>
</g>
</svg>
