<?xml version="1.0" encoding="utf-8"?>
<!-- Generator: Adobe Illustrator 23.1.0, SVG Export Plug-In . SVG Version: 6.00 Build 0)  -->
<svg version="1.1" id="Слой_1" xmlns="http://www.w3.org/2000/svg" xmlns:xlink="http://www.w3.org/1999/xlink" x="0px" y="0px"
	 viewBox="0 0 64 64" style="enable-background:new 0 0 64 64;" xml:space="preserve">
<style type="text/css">
	.st0{fill:#494947;}
	.st1{fill:#FFFFFF;}
</style>
<path class="st0" d="M32,0C14.3,0,0,14.3,0,32s14.3,32,32,32s32-14.3,32-32S49.7,0,32,0z"/>
<path class="st0" d="M33.032,8.493"/>
<path class="st1" d="M31.809,13.655"/>
<path class="st1" d="M49.415,12.69c-0.596,1.492-1.358,2.898-2.271,4.195c-4.003-4.159-9.427-6.496-15.085-6.496
	c-11.705,0-21.333,10.021-21.333,22.204c0,6.078,2.396,11.895,6.628,16.084l0.783,0.728c3.851,3.374,8.713,5.22,13.741,5.226
	c11.13,0,20.48-9.069,21.277-20.618c0.582-5.66-1.019-12.81-3.741-21.317L49.415,12.69z M20.381,48.807
	c-0.339,0.447-0.866,0.699-1.414,0.699c-1.011,0-1.822-0.851-1.828-1.896c0-1.045,0.831-1.903,1.828-1.903
	C20.498,45.714,21.35,47.567,20.381,48.807z M49.331,42.161c-5.263,7.296-16.512,4.838-23.714,5.19c0,0-1.282,0.079-2.569,0.296
	c0,0,0.485-0.209,1.108-0.461c5.063-1.831,7.452-2.184,10.528-3.828c5.79-3.064,11.517-9.768,12.709-16.74
	c-2.209,6.712-8.894,12.471-14.981,14.814c-4.169,1.6-11.705,3.157-11.705,3.157l-0.305-0.166
	c-5.132-2.595-5.285-14.158,4.037-17.893c4.08-1.629,7.992-0.735,12.398-1.824c4.71-1.168,10.161-4.844,12.376-9.639
	c2.48,7.671,5.464,19.674,0.118,27.091L49.331,42.161z"/>
</svg>
