<?xml version="1.0" encoding="utf-8"?>
<!-- Generator: Adobe Illustrator 23.1.0, SVG Export Plug-In . SVG Version: 6.00 Build 0)  -->
<svg version="1.1" id="Слой_1" xmlns="http://www.w3.org/2000/svg" xmlns:xlink="http://www.w3.org/1999/xlink" x="0px" y="0px"
	 viewBox="0 0 64 64" style="enable-background:new 0 0 64 64;" xml:space="preserve">
<style type="text/css">
	.st0{fill:#494947;}
	.st1{fill:#FFFFFF;}
	.st2{fill:#FFFEFF;}
</style>
<path class="st0" d="M32,0C14.3,0,0,14.3,0,32s14.3,32,32,32s32-14.3,32-32S49.7,0,32,0z"/>
<path class="st0" d="M33.032,8.493"/>
<path class="st1" d="M31.809,13.655"/>
<path class="st1" d="M15.724,34.136c0.594,0.73,1.22,1.433,1.878,2.106c-2.005,0.603-3.32,1.724-4.14,2.713
	c-1.297,1.566-1.984,3.634-1.826,5.409H8.183C8.875,42.861,11.64,38.52,15.724,34.136 M55.725,45.306h-4.199
	c-9.632-5.026-18.088-8.57-27.072-9.345c0.019-1.25,0.242-2.665,0.67-4.243l-0.827-0.223c-0.439,1.621-0.67,3.088-0.696,4.4
	c-0.942-0.063-1.885-0.094-2.829-0.093c-0.805,0-1.539,0.074-2.209,0.204c-0.873-0.871-1.617-1.705-2.249-2.494
	c4.143-4.315,10.968-8.219,16.907-9.687c1.672,5.559,5.262,9.368,9.619,11.93c0.32-0.182,0.634-0.374,0.942-0.574l7.6,8.182
	l0.333-0.029c2.075-0.179,3.255,0.948,3.567,1.297C55.512,44.887,55.649,45.121,55.725,45.306"/>
<path class="st2" d="M51.658,18.154c0.153,7.496-3.671,13.462-9.026,16.522c-9.088-4.527-10.799-15.999-9.25-22.152
	c0.431,2.353,1.214,3.828,2.907,4.552c3.69-1.056,8.769-1.139,12.51-0.108c1.558-1.133,2.163-2.865,2.493-4.378
	C51.703,14.35,51.656,18.154,51.658,18.154"/>
<path class="st1" d="M39.421,18.517c0.316,0,0.537,0.128,0.698,0.403c0.375,0.646,0.314,1.919,0.003,3.251h-2.527v0.554h2.385
	c-0.256,0.909-0.615,1.808-1.02,2.521l-0.131,0.23l3.162,1.99l-1.78,1.173l0.305,0.463l1.99-1.312l2.148,1.402l0.295-0.468
	l-1.991-1.232c0,0,2.977-1.934,3.125-2.028l-0.002-0.003l0.003-0.001c-0.656-0.967-0.864-1.793-0.591-2.734h0.223l2.401-0.003
	l0.006-0.551h-2.419c0.446-1.049,1.07-1.993,3.297-1.993v-0.554c-2.055,0-3.285,0.816-3.874,2.547H40.69
	c0.31-1.384,0.364-2.744-0.094-3.53c-0.258-0.443-0.664-0.678-1.175-0.678c-1.832,0-2.555,1.872-2.585,1.952l0.518,0.194
	C37.381,20.042,37.978,18.517,39.421,18.517L39.421,18.517z M42.562,26.838l-2.121-1.335l4.144,0.001L42.562,26.838L42.562,26.838z
	 M44.736,22.704c-0.178,0.568-0.107,1.424,0.332,2.159h-5.109c0.311-0.623,0.599-1.382,0.81-2.159H44.736z"/>
<path d="M34.816,22.895L34.816,22.895L34.816,22.895L34.816,22.895"/>
<path class="st1" d="M55.484,43.99c-0.93-1.04-2.751-1.533-4.273-1.496c-0.97-1.154-6.115-6.586-7.153-7.681
	c2.19-1.539,4.042-3.51,5.443-5.791h2.839v-0.609h-2.48c0.159-0.281,0.31-0.566,0.455-0.854h2.025v-0.61h-1.73
	c1.285-2.775,1.996-5.961,1.927-9.448l0.007,0.004c-0.004-0.954-0.301-4.986-0.847-6.097c-1.481,0.563-4.175,2.386-4.785,4.25
	c-2.923-0.436-6.217-0.385-9.103,0.115c-0.482-2.006-2.902-3.541-4.728-4.406c-0.77,1.3-1.111,4.313-1.025,6.45l-0.01,0.007
	c0.073,1.931,0.335,3.705,0.757,5.334c-6.314,1.565-13.188,5.701-17.034,9.698c-1.8-2.429-2.514-4.423-2.726-5.933
	c-0.268-1.908,0.188-3.658,1.317-5.061c1.768-2.197,4.28-2.351,6.864-1.917c-0.05,0.408,0.003,0.798,0.167,1.039
	c0.683,1.009,4.355,1.363,6.546,0.386c-1.617-2.266-4.893-3.373-5.801-2.93c-0.301,0.147-0.528,0.416-0.683,0.731
	c-0.893-0.16-1.78-0.279-2.428-0.274c-2.278,0.017-4.02,0.813-5.324,2.433c-1.28,1.59-1.797,3.565-1.496,5.71
	c0.285,2.032,1.291,4.193,2.978,6.435c-0.274,0.293-0.544,0.59-0.812,0.889c-4.11,4.599-7.114,9.53-7.114,10.348v0.423h5.422
	l-0.095-0.502c-0.306-1.618,0.305-3.641,1.558-5.153c0.786-0.949,2.089-2.032,4.133-2.532c1.818,1.775,4.135,3.659,6.713,5.477
	h4.029v-0.423c0-0.478-0.237-0.896-0.667-1.177c-0.637-0.416-1.619-0.473-2.522-0.166c-0.86-0.958-1.343-2.239-1.447-3.829
	c8.745,0.774,17.109,4.306,26.547,9.236h5.193l0.068-0.34C56.287,45.241,56.023,44.592,55.484,43.99z M33.415,12.543
	c0.43,2.344,1.209,3.813,2.897,4.534c1.494-0.428,3.218-0.692,4.987-0.79l1.467,3.218l0.941-3.246
	c1.788,0.058,3.54,0.29,5.067,0.711c1.553-1.129,2.156-2.854,2.485-4.362c0.411,1.754,0.364,5.542,0.365,5.543
	c0.029,1.415-0.085,2.774-0.324,4.07l-1.676,0.712l1.477,0.224c-0.116,0.492-0.251,0.979-0.406,1.459l-1.429,0.415l1.139,0.41
	c-0.192,0.512-0.407,1.014-0.645,1.506h-2.357v0.61h2.047c-0.154,0.289-0.316,0.574-0.486,0.854h-1.561v0.609h1.178
	c-1.549,2.346-3.601,4.249-5.949,5.591c-2.713-1.352-4.766-3.325-6.27-5.591h0.9v-0.609h-1.287c-0.17-0.28-0.333-0.565-0.488-0.854
	h1.775v-0.61h-2.09c-0.357-0.725-0.671-1.47-0.94-2.232l1.065-0.298l-1.343-0.537c-0.135-0.436-0.257-0.875-0.366-1.318l2.067-0.141
	l-2.363-1.254C32.711,17.975,32.827,14.875,33.415,12.543L33.415,12.543z M13.49,38.94c-1.283,1.548-1.962,3.593-1.807,5.348H8.268
	c0.686-1.485,3.42-5.779,7.459-10.116c0.557,0.688,1.177,1.383,1.858,2.084C15.602,36.852,14.301,37.961,13.49,38.94z M51.137,45.22
	c-9.526-4.97-17.89-8.476-26.775-9.241c0.019-1.236,0.24-2.636,0.662-4.196l-0.817-0.221c-0.434,1.603-0.663,3.055-0.689,4.353
	c-0.931-0.062-1.864-0.093-2.798-0.093c-0.797,0-1.523,0.074-2.185,0.203c-0.864-0.863-1.599-1.686-2.224-2.467
	c1.112-1.158,2.42-2.286,3.852-3.344l1.983,1.369l-0.647-2.312c0.607-0.409,1.225-0.802,1.854-1.177l2.938,1.493l-1.38-2.379
	c0.401-0.217,0.807-0.427,1.215-0.63l4.105,2.753l-1.348-3.994c1.401-0.565,2.799-1.026,4.15-1.361
	c0.307,1.02,0.693,2.014,1.155,2.973h-1.864v0.61h2.172c0.153,0.29,0.311,0.576,0.476,0.854h-2.647v0.609h3.025
	c1.855,2.879,4.362,5.084,7.199,6.753c0.316-0.181,0.626-0.371,0.931-0.57l0.743,0.8l-1.249,1.922l2.131-0.973l1.234,1.328
	l-2.086,1.589l2.872-0.743l3.874,4.17l0.328-0.028c2.053-0.176,3.22,0.938,3.529,1.283c0.227,0.253,0.363,0.485,0.438,0.666
	L51.137,45.22L51.137,45.22z"/>
</svg>
