<?xml version="1.0" encoding="utf-8"?>
<!-- Generator: Adobe Illustrator 23.1.0, SVG Export Plug-In . SVG Version: 6.00 Build 0)  -->
<svg version="1.1" id="Слой_1" xmlns="http://www.w3.org/2000/svg" xmlns:xlink="http://www.w3.org/1999/xlink" x="0px" y="0px"
	 viewBox="0 0 64 64" style="enable-background:new 0 0 64 64;" xml:space="preserve">
<style type="text/css">
	.st0{fill:#494947;}
	.st1{fill:#FFFFFF;}
	.st2{fill:#FEFEFE;stroke:#FFFFFF;stroke-miterlimit:10;}
	.st3{fill-rule:evenodd;clip-rule:evenodd;fill:#FEFEFE;}
</style>
<path class="st0" d="M32,0C14.3,0,0,14.3,0,32s14.3,32,32,32s32-14.3,32-32S49.7,0,32,0z"/>
<path class="st0" d="M33.032,8.493"/>
<path class="st1" d="M31.809,13.655"/>
<path class="st2" d="M31.544,13.486c2.7,0,5.2,0.506,7.401,1.517c0,0.203,0,0.405,0,0.506c0,1.315,0.5,2.428,1.301,3.237h0.1
	c0.8,0.911,1.9,1.417,3.2,1.417c0.7,0,1.301-0.203,1.9-0.405c2.7,2.934,4.401,6.778,4.801,11.128l-5.501,0.101
	c-0.3-3.136-1.7-5.969-3.801-8.093c-2.4-2.428-5.7-3.946-9.401-3.946c-1.7,0-3.401,0.405-4.901,1.012l-2.5-4.957
	C26.443,13.992,28.943,13.486,31.544,13.486z M50.246,33.012c-0.1,4.249-1.7,8.195-4.2,11.23c-0.5-0.203-1.1-0.303-1.7-0.303
	c-1.301,0-2.4,0.506-3.2,1.315l0,0c-0.9,0.809-1.4,2.023-1.4,3.237c0,0.303,0,0.506,0.1,0.809c-2.5,1.214-5.301,1.922-8.3,1.922
	c-2.7,0-5.401-0.607-7.701-1.72l2.5-4.856c1.6,0.708,3.401,1.112,5.2,1.112c3.7,0,7.001-1.517,9.401-3.946
	c2.2-2.226,3.7-5.261,3.901-8.701L50.246,33.012z M21.843,48.49c-1.2-0.809-2.4-1.72-3.401-2.732l-0.1-0.101
	c-2.6-2.63-4.401-6.07-5.1-9.813c0.4-0.303,0.7-0.506,1.1-0.809c0.8-0.911,1.301-2.023,1.301-3.338c0-1.214-0.5-2.428-1.301-3.237
	c-0.3-0.203-0.6-0.506-0.9-0.708c0.9-3.338,2.6-6.373,4.901-8.701h0.1c1.1-1.214,2.4-2.226,3.801-3.035l2.5,4.856
	c-1,0.607-1.801,1.214-2.5,2.023c-2.4,2.428-3.901,5.767-3.901,9.51c0,3.642,1.5,6.981,3.901,9.408c0.6,0.708,1.4,1.315,2.2,1.821
	L21.843,48.49z"/>
<ellipse class="st3" cx="43.646" cy="15.409" rx="3.5" ry="3.541"/>
<ellipse class="st3" cx="44.445" cy="48.591" rx="3.5" ry="3.541"/>
<ellipse class="st3" cx="10.742" cy="31.697" rx="3.5" ry="3.541"/>
</svg>
