<?xml version="1.0" encoding="utf-8"?>
<!-- Generator: Adobe Illustrator 23.1.0, SVG Export Plug-In . SVG Version: 6.00 Build 0)  -->
<svg version="1.1" id="Слой_1" xmlns="http://www.w3.org/2000/svg" xmlns:xlink="http://www.w3.org/1999/xlink" x="0px" y="0px"
	 viewBox="0 0 512 512" style="enable-background:new 0 0 512 512;" xml:space="preserve">
<style type="text/css">
	.st0{fill:#333330;}
	.st1{fill:#FFFFFF;stroke:#000000;stroke-miterlimit:10;}
</style>
<circle class="st0" cx="256" cy="256" r="255.5"/>
<g>
	<path class="st1" d="M198.815,97.589c15.2-15.2,33.7-22.8,55.1-22.8s40,7.7,55.1,22.8c15.2,15.2,22.8,33.7,22.8,55.1
		s-7.7,40-22.8,55.1c-15.2,15.2-33.7,22.8-55.1,22.8s-40-7.7-55.1-22.8c-15.2-15.2-22.8-33.7-22.8-55.1
		C175.915,131.289,183.615,112.789,198.815,97.589z"/>
	<path class="st1" d="M391.015,383.289c-1.9,4.1-10.3,17.5-57.1,15.1h-155.9c-46.4,4.3-55.1-9.5-56.8-12.8
		c-2.3-4.4-0.3-5.6-0.2-42.9c0-4.6,0.1-10.7,0.6-19.1c0.4-6.3,1.3-13.2,2.6-20.5c1.3-7.3,3-14.2,5-20.6c2.1-6.5,4.9-13,8.5-19.2
		c3.6-6.4,7.9-12,12.7-16.6c5-4.8,11.2-8.7,18.3-11.5c7.1-2.8,15-4.2,23.4-4.2c3.3,0,6.5,1.4,12.7,5.4c3.9,2.5,8.3,5.4,13.2,8.5
		c4.2,2.7,10,5.2,17.1,7.5c6.9,2.2,14,3.4,20.9,3.4c6.9,0,14-1.1,20.9-3.4c7.1-2.3,12.8-4.8,17.1-7.5c5-3.2,9.4-6,13.2-8.5
		c6.2-4,9.4-5.4,12.7-5.4c8.4,0,16.3,1.4,23.4,4.2s13.3,6.7,18.3,11.5c4.8,4.6,9.1,10.2,12.7,16.6c3.5,6.2,6.4,12.6,8.5,19.2
		c2,6.3,3.7,13.2,5,20.6c1.3,7.3,2.2,14.1,2.6,20.4c0.6,8.2,0.6,14,0.7,19.1C391.115,378.389,392.915,379.189,391.015,383.289z"/>
</g>
</svg>
