<?xml version="1.0" encoding="utf-8"?>
<!-- Generator: Adobe Illustrator 23.1.0, SVG Export Plug-In . SVG Version: 6.00 Build 0)  -->
<svg version="1.1" id="Слой_1" xmlns="http://www.w3.org/2000/svg" xmlns:xlink="http://www.w3.org/1999/xlink" x="0px" y="0px"
	 viewBox="0 0 512 512" style="enable-background:new 0 0 512 512;" xml:space="preserve">
<style type="text/css">
	.st0{fill:#FFFFFF;stroke:#000000;stroke-miterlimit:10;}
	.st1{fill:#333330;}
</style>
<g>
	<circle class="st0" cx="256" cy="256" r="237.5"/>
	<g>
		<path class="st1" d="M301.5,150.6c0-4.9-4-8.8-8.8-8.8h-70.5c-4.9,0-8.8,4-8.8,8.8v8.8h88.2v-8.8H301.5z"/>
		<path class="st1" d="M256,0C114.6,0,0,114.6,0,256s114.6,256,256,256s256-114.6,256-256S397.4,0,256,0z M195.7,159.5v-8.8
			c0-14.6,11.9-26.5,26.5-26.5h70.5c14.6,0,26.5,11.9,26.5,26.5v8.8h73.6l-33.3,99.8c-1.2,3.6-4.6,6-8.4,6h-49.6v-8.8
			c0-4.9-3.9-8.8-8.8-8.8h-70.5c-4.9,0-8.8,3.9-8.8,8.8v8.8h-49.6c-3.8,0-7.2-2.4-8.4-6l-33.3-99.8L195.7,159.5L195.7,159.5z
			 M283.9,265.3v17.6H231v-17.6H283.9z M408,362.3c0,14.6-11.9,26.5-26.5,26.5H133.4c-14.6,0-26.5-11.9-26.5-26.5V169.7l31.7,95.1
			c3.6,10.8,13.7,18.1,25.1,18.1h49.6v8.8c0,4.9,3.9,8.8,8.8,8.8h70.5c4.9,0,8.8-3.9,8.8-8.8v-8.8H351c11.4,0,21.5-7.3,25.1-18.1
			l31.7-95.1v192.6H408z"/>
	</g>
</g>
</svg>
